<svg id="b4dc5c95-3db0-4ddd-bf3b-d0573a6336af" data-name="Layer 1" xmlns="http://www.w3.org/2000/svg" viewBox="0 0 335.4 72.8"><defs><style>.ff13c30f-357c-42f3-b018-332e1e60f100{font-size:50px;font-family:Calibri-Bold, Calibri;font-weight:700;}.a6306dbd-a47d-4f4c-b17b-43ecd71d67e4,.ff13c30f-357c-42f3-b018-332e1e60f100{fill:#4e73b6;}.fa01853f-f40c-4d91-8f34-d1ea53e9e3e7{fill:#232020;}.a0c4e5d9-40d4-4041-acc6-d49b172737c6,.a0df7c7b-bd73-440b-a2e3-241a52ee3a9a{fill:#f06c5b;}.a0c4e5d9-40d4-4041-acc6-d49b172737c6,.a6306dbd-a47d-4f4c-b17b-43ecd71d67e4,.b749aa9a-e5c0-49a8-9d3e-cc93ef5c60d9{fill-rule:evenodd;}.b749aa9a-e5c0-49a8-9d3e-cc93ef5c60d9{fill:#010101;opacity:0.36;}</style></defs><title>logo_final</title><text class="ff13c30f-357c-42f3-b018-332e1e60f100" transform="translate(66.9 55.4)">Build<tspan class="fa01853f-f40c-4d91-8f34-d1ea53e9e3e7" x="106.3" y="0"> </tspan><tspan class="a0df7c7b-bd73-440b-a2e3-241a52ee3a9a" x="117.6" y="0">MyAPP</tspan></text><path class="a0c4e5d9-40d4-4041-acc6-d49b172737c6" d="M131.3,387.3a4,4,0,0,0-4-4h-7.9a4,4,0,0,0-4,4v7.8a3.9,3.9,0,0,0,4,3.9h7.9a3.9,3.9,0,0,0,4-3.9Z" transform="translate(-115.4 -383.3)"/><path class="a6306dbd-a47d-4f4c-b17b-43ecd71d67e4" d="M131.3,427.9a3.9,3.9,0,0,0-4-3.9h-7.9a3.9,3.9,0,0,0-4,3.9v7.8a4,4,0,0,0,4,4h7.9a4,4,0,0,0,4-4Z" transform="translate(-115.4 -383.3)"/><path class="a0c4e5d9-40d4-4041-acc6-d49b172737c6" d="M151.8,407.6a4,4,0,0,0-3.9-4h-8a3.9,3.9,0,0,0-3.9,4v7.8a3.8,3.8,0,0,0,3.9,3.9h8a3.9,3.9,0,0,0,3.9-3.9Z" transform="translate(-115.4 -383.3)"/><path class="a6306dbd-a47d-4f4c-b17b-43ecd71d67e4" d="M151.8,427.9a3.9,3.9,0,0,0-3.9-3.9h-8a3.8,3.8,0,0,0-3.9,3.9v7.8a3.9,3.9,0,0,0,3.9,4h8a4,4,0,0,0,3.9-4Z" transform="translate(-115.4 -383.3)"/><path class="a6306dbd-a47d-4f4c-b17b-43ecd71d67e4" d="M172.2,387.4a3.9,3.9,0,0,0-4-3.9h-7.9a3.9,3.9,0,0,0-4,3.9v7.8a3.9,3.9,0,0,0,4,3.9h7.9a3.9,3.9,0,0,0,4-3.9Z" transform="translate(-115.4 -383.3)"/><path class="a6306dbd-a47d-4f4c-b17b-43ecd71d67e4" d="M172.2,407.5a3.9,3.9,0,0,0-4-3.9h-7.9a3.9,3.9,0,0,0-4,3.9v7.8a3.9,3.9,0,0,0,4,3.9h7.9a3.9,3.9,0,0,0,4-3.9Z" transform="translate(-115.4 -383.3)"/><path class="b749aa9a-e5c0-49a8-9d3e-cc93ef5c60d9" d="M153.7,390.1a3.9,3.9,0,0,0-3.9-3.9h-8a3.9,3.9,0,0,0-3.9,3.9V398a3.9,3.9,0,0,0,3.9,3.9h8a3.9,3.9,0,0,0,3.9-3.9Z" transform="translate(-115.4 -383.3)"/><path class="a6306dbd-a47d-4f4c-b17b-43ecd71d67e4" d="M151.8,387.3a4,4,0,0,0-3.9-4h-8a3.9,3.9,0,0,0-3.9,4v7.8a3.8,3.8,0,0,0,3.9,3.9h8a3.9,3.9,0,0,0,3.9-3.9Z" transform="translate(-115.4 -383.3)"/><path class="b749aa9a-e5c0-49a8-9d3e-cc93ef5c60d9" d="M158.2,426a3.9,3.9,0,0,0-3.1,4.6l1.4,7.7a4,4,0,0,0,4.6,3.1l4.6-.9.7-.4.3.3,2.2-.4a4,4,0,0,0,3.2-4.6l-1.4-7.7a4,4,0,0,0-4.7-3.1Z" transform="translate(-115.4 -383.3)"/><path class="a0c4e5d9-40d4-4041-acc6-d49b172737c6" d="M159.6,424.1a4,4,0,0,0-3.2,4.6l1.5,7.7a3.9,3.9,0,0,0,4.6,3.1l4.6-.8.6-.5.3.3,2.3-.4a4,4,0,0,0,3.1-4.6l-1.4-7.7a4,4,0,0,0-4.6-3.1Z" transform="translate(-115.4 -383.3)"/><path class="b749aa9a-e5c0-49a8-9d3e-cc93ef5c60d9" d="M132.9,409.4a3.8,3.8,0,0,0-3.9-3.9h-7.9a3.9,3.9,0,0,0-4,3.9v7.8a4,4,0,0,0,4,4H129a3.9,3.9,0,0,0,3.9-4Z" transform="translate(-115.4 -383.3)"/><path class="a6306dbd-a47d-4f4c-b17b-43ecd71d67e4" d="M131.3,407.5a3.9,3.9,0,0,0-4-3.9h-7.9a3.9,3.9,0,0,0-4,3.9v7.8a3.9,3.9,0,0,0,4,3.9h7.9a3.9,3.9,0,0,0,4-3.9Z" transform="translate(-115.4 -383.3)"/></svg>