<svg xmlns="http://www.w3.org/2000/svg" width="337.26" height="249.999" viewBox="0 0 337.26 249.999">
  <g id="Blob_Getting_Started_delivery_" data-name="Blob Getting Started (delivery)" transform="translate(-0.001 0.097)">
    <path id="Path_970" data-name="Path 970" d="M753.417,246.414l2.643-1.638c.251-.16.5-.33.754-.49a25.372,25.372,0,0,1-2.551-49.389l-.131,10.445,5.714-11.368a.225.225,0,0,1,.071,0,25.282,25.282,0,0,1,26.391,24.137c.021.483,0,.959,0,1.421a30.309,30.309,0,0,0,4.989-7.393c2.42-5.418,2.477-11.553,2.275-19.01-.382-14.779-1.015-29.668-1.843-44.514a25.287,25.287,0,0,1-22.414-23.977c-.035-.778-.025-1.542,0-2.3a3.822,3.822,0,0,1,.028-.568c.05-.735.117-1.464.23-2.181a2.081,2.081,0,0,1,.064-.355q.156-.913.371-1.8c.057-.22.11-.444.17-.664a19.266,19.266,0,0,1,.6-1.911c.074-.21.163-.412.241-.618.18-.462.375-.917.58-1.368.11-.238.216-.472.333-.711.028-.06.053-.121.085-.181h0A25.186,25.186,0,0,1,801.65,99.118l-.17,13.592,5.661-11.226a25.227,25.227,0,0,1,12.03,27.309h.028c-.039.181-.1.355-.138.533-.078.334-.163.664-.255.995-.12.423-.255.838-.393,1.254-.106.309-.209.625-.326.931-.17.448-.354.885-.559,1.322-.113.256-.216.515-.354.767q-.485.981-1.062,1.918c-.131.217-.279.423-.417.639-.269.419-.541.835-.835,1.24-.181.249-.375.487-.566.732-.276.355-.559.711-.853,1.034-.209.238-.421.473-.64.711-.308.327-.626.643-.955.956-.216.21-.435.419-.662.618-.372.33-.761.647-1.154.956-.2.156-.389.32-.594.469q-.9.668-1.85,1.254c-.12.071-.248.131-.354.2-.531.316-1.061.611-1.631.888-.237.117-.485.22-.729.33-.456.206-.916.4-1.387.586-.272.1-.552.2-.831.295-.464.16-.934.306-1.415.437-.283.078-.563.156-.849.224-.517.124-1.044.227-1.575.316a.179.179,0,0,0-.1.021q.524,9.393.931,18.8a25.179,25.179,0,0,1,35.028-11L830.21,168.5l9.178-8.85a25.316,25.316,0,0,1,8.138,17.5,24.9,24.9,0,0,1-.641,6.981,25.2,25.2,0,0,1-46.411,6.9c0,.636.046,1.275.064,1.911.166,6.579.375,14.765-2.891,22.076-2.211,4.956-5.774,8.981-9.295,12.587-2.289,2.348-4.663,4.618-7.1,6.817a25.265,25.265,0,0,1-9.114,7.61q-6,4.64-12.419,8.69l-2.6,1.684c-2.4,1.5-4.865,3.03-7.282,4.618.425-.043.846-.089,1.277-.107a25.251,25.251,0,0,1,24.852,16.495L760.2,286.306l17.337-4.039a25.258,25.258,0,0,1-36.189,22.826c.389.49.782.977,1.171,1.464.775.97,1.546,1.933,2.3,2.888,10.261,13.049,13.12,25.44,8.035,34.887l-6.178-3.354c4.953-9.194-2.477-20.96-7.37-27.163-.74-.938-1.5-1.883-2.261-2.842-6.556-8.171-13.987-17.451-13.8-28.822C723.509,265.026,740.1,254.7,753.417,246.414Z" transform="translate(-510.296 -98.18)" fill="#f2f2f2"/>
    <ellipse id="Ellipse_94" data-name="Ellipse 94" cx="161.839" cy="7.43" rx="161.839" ry="7.43" transform="translate(0 235.041)" fill="#3f3d56"/>
    <path id="Path_971" data-name="Path 971" d="M940.434,694.605c1.061-1.95-.142-4.338-1.514-6.079s-3.046-3.538-3.011-5.764c.05-3.184,3.428-5.063,6.132-6.751a30,30,0,0,0,5.5-4.426,8.063,8.063,0,0,0,1.695-2.264,9.243,9.243,0,0,0,.506-4.026q-.177-6.815-.672-13.615" transform="translate(-647.719 -454.904)" fill="none" stroke="#3f3d56" stroke-miterlimit="10" stroke-width="4"/>
    <path id="Path_972" data-name="Path 972" d="M969.483,642.348a4.975,4.975,0,0,0-2.477-4.069l-1.111,2.2.032-2.661a4.965,4.965,0,1,0,3.538,4.529Z" transform="translate(-662.997 -446.015)" fill="#57b793"/>
    <path id="Path_973" data-name="Path 973" d="M945.5,732.812a4.954,4.954,0,1,1,.237-4l-3.1,2.523,3.411-.793A4.953,4.953,0,0,1,945.5,732.812Z" transform="translate(-647.87 -502.664)" fill="#57b793"/>
    <path id="Path_974" data-name="Path 974" d="M946.175,700.575a4.953,4.953,0,0,1-5.187-4.731,4.882,4.882,0,0,1,.428-2.261,4.975,4.975,0,0,1,3.184-2.753l-.025,2.049,1.125-2.229h0a4.968,4.968,0,1,1,.464,9.925Z" transform="translate(-650.997 -480.082)" fill="#57b793"/>
    <path id="Path_975" data-name="Path 975" d="M980.247,677.9a4.959,4.959,0,1,1,2.194-9.277l-.877,2.406,1.8-1.734a4.954,4.954,0,0,1,1.606,3.429,4.843,4.843,0,0,1-.127,1.366,4.953,4.953,0,0,1-4.6,3.811Z" transform="translate(-673.014 -465.439)" fill="#57b793"/>
    <path id="Path_976" data-name="Path 976" d="M968.916,648.607c-1.146.127-2.261.485-3.411.555a3.712,3.712,0,0,1-3.142-1.1,15.713,15.713,0,0,1-.92-1.613,3.538,3.538,0,0,0-1.249-1.178,4.954,4.954,0,1,0,9.284,3.3C969.287,648.575,969.1,648.589,968.916,648.607Z" transform="translate(-663.098 -450.962)" opacity="0.1"/>
    <path id="Path_977" data-name="Path 977" d="M980.225,683.076A4.953,4.953,0,0,1,975.5,676a3.678,3.678,0,0,1,1,1,15.987,15.987,0,0,0,.984,1.642,4.049,4.049,0,0,0,3.294,1.15c1.2-.057,2.353-.393,3.538-.5.163,0,.333-.028.5-.032A4.953,4.953,0,0,1,980.225,683.076Z" transform="translate(-672.992 -470.619)" opacity="0.1"/>
    <path id="Path_978" data-name="Path 978" d="M946.175,705.942a4.953,4.953,0,0,1-5.187-4.731,4.882,4.882,0,0,1,.428-2.261,4.077,4.077,0,0,1,1.061,1.008c.386.545.626,1.171,1.062,1.674a4.586,4.586,0,0,0,3.517,1.231c1.27-.032,2.413-.329,3.637-.421a4.975,4.975,0,0,1-4.518,3.5Z" transform="translate(-650.997 -485.449)" opacity="0.1"/>
    <path id="Path_979" data-name="Path 979" d="M945.255,738.569A4.963,4.963,0,0,1,936.2,734.5a5.15,5.15,0,0,1,1.09.973,19.569,19.569,0,0,0,1.33,1.769,6.18,6.18,0,0,0,4.111,1.444A21.288,21.288,0,0,0,945.255,738.569Z" transform="translate(-647.625 -508.421)" opacity="0.1"/>
    <path id="Path_980" data-name="Path 980" d="M927.54,762.78s3.917-.12,5.1-.962,6.015-1.847,6.323-.5,5.891,6.723,1.465,6.744-10.282-.708-11.46-1.415S927.54,762.78,927.54,762.78Z" transform="translate(-642.311 -525.326)" fill="#656380"/>
    <path id="Path_981" data-name="Path 981" d="M940.5,771.44c-4.423.035-10.282-.708-11.46-1.415-.9-.545-1.256-2.509-1.373-3.414h-.131s.248,3.16,1.415,3.892,7.034,1.444,11.46,1.415c1.277,0,1.72-.467,1.695-1.139C941.944,771.178,941.456,771.432,940.5,771.44Z" transform="translate(-642.311 -529.17)" opacity="0.2"/>
    <path id="Path_982" data-name="Path 982" d="M278.114,551.036c-2.569-4.755.354-10.579,3.694-14.818s7.43-8.647,7.342-14.05c-.127-7.763-8.364-12.345-14.945-16.46a72.987,72.987,0,0,1-13.42-10.788,19.6,19.6,0,0,1-4.126-5.523c-1.359-3.036-1.323-6.486-1.235-9.811q.425-16.63,1.642-33.2" transform="translate(-209.328 -322.25)" fill="none" stroke="#3f3d56" stroke-miterlimit="10" stroke-width="4"/>
    <path id="Path_983" data-name="Path 983" d="M224.736,423.622a12.1,12.1,0,0,1,6.043-9.907l2.71,5.36-.081-6.489a12.108,12.108,0,1,1-8.672,11.046Z" transform="translate(-189.513 -300.593)" fill="#57b793"/>
    <path id="Path_984" data-name="Path 984" d="M283.337,644.065a12.1,12.1,0,0,0,22.853-4.953,11.945,11.945,0,0,0-.789-4.911,12.108,12.108,0,0,0-22.644.131l7.561,6.149L282,638.546A11.97,11.97,0,0,0,283.337,644.065Z" transform="translate(-226.284 -438.768)" fill="#57b793"/>
    <path id="Path_985" data-name="Path 985" d="M281.619,565.623a12.108,12.108,0,0,0,3.839-23.748l.064,4.985-2.724-5.424h-.032a12.108,12.108,0,0,0-1.129,24.191Z" transform="translate(-218.608 -383.96)" fill="#57b793"/>
    <path id="Path_986" data-name="Path 986" d="M198.511,510.351a12.108,12.108,0,1,0-5.35-22.644l2.123,5.863-4.384-4.235a12.051,12.051,0,0,0-3.927,8.357,11.807,11.807,0,0,0,.308,3.333,12.1,12.1,0,0,0,11.23,9.327Z" transform="translate(-165.11 -348.331)" fill="#57b793"/>
    <path id="Path_987" data-name="Path 987" d="M226.833,438.938c2.8.308,5.513,1.175,8.315,1.348s5.884-.5,7.657-2.675a37.749,37.749,0,0,0,2.24-3.942,8.591,8.591,0,0,1,3.05-2.869,12.108,12.108,0,1,1-22.644,8.035C225.921,438.857,226.381,438.888,226.833,438.938Z" transform="translate(-189.983 -312.667)" opacity="0.1"/>
    <path id="Path_988" data-name="Path 988" d="M199.126,523.016a12.115,12.115,0,0,0,11.517-17.266,8.955,8.955,0,0,0-2.434,2.434,39.24,39.24,0,0,1-2.4,4c-1.886,2.215-5.106,2.94-8.028,2.809s-5.742-.966-8.651-1.231c-.4-.035-.814-.064-1.221-.074a12.1,12.1,0,0,0,11.216,9.327Z" transform="translate(-165.726 -360.985)" opacity="0.1"/>
    <path id="Path_989" data-name="Path 989" d="M282.567,578.694A12.1,12.1,0,0,0,294.18,561.65a9.79,9.79,0,0,0-2.558,2.477,41.48,41.48,0,0,1-2.629,4.08c-2.042,2.275-5.474,3.078-8.569,3-3-.064-5.884-.8-8.863-1.03a12.115,12.115,0,0,0,11.007,8.513Z" transform="translate(-219.555 -397.022)" opacity="0.1"/>
    <path id="Path_990" data-name="Path 990" d="M285.78,658.224a12.1,12.1,0,0,0,22.853-4.953,11.945,11.945,0,0,0-.789-4.911,12.123,12.123,0,0,0-2.654,2.367,46.549,46.549,0,0,1-3.241,4.3c-2.477,2.427-6.471,3.432-10.027,3.538A51.922,51.922,0,0,1,285.78,658.224Z" transform="translate(-228.722 -452.922)" opacity="0.1"/>
    <path id="Path_991" data-name="Path 991" d="M269.029,563.146l-46.7,9.553-1.061-.106-41.043-4.14V516.442l50.242-8.492,36.443,4.246.011.23,0,.113Z" transform="translate(-116.107 -327.291)" fill="#63c1ff"/>
    <path id="Path_992" data-name="Path 992" d="M343.986,571.32l-46.7,9.553-1.061-.106V527.446l45.653-6.846Z" transform="translate(-190.921 -335.465)" opacity="0.1"/>
    <path id="Path_993" data-name="Path 993" d="M266.92,512.539l-.014.011-45.643,6.723-41.043-2.831,50.242-8.492,36.443,4.246.011.23Z" transform="translate(-116.109 -327.534)" opacity="0.05"/>
    <path id="Path_994" data-name="Path 994" d="M414.029,569.146l-46.7,9.553-1.061-.106-41.043-4.14V522.442l50.242-8.492,36.443,4.246.011.23,0,.113Z" transform="translate(-209.523 -331.168)" fill="#3f3d56"/>
    <path id="Path_995" data-name="Path 995" d="M488.986,577.32l-46.7,9.553-1.061-.106V533.446l45.653-6.846Z" transform="translate(-284.377 -339.342)" opacity="0.1"/>
    <path id="Path_996" data-name="Path 996" d="M411.92,518.539l-.014.011-45.643,6.723-41.043-2.831,50.242-8.492,36.443,4.246.011.23Z" transform="translate(-209.528 -331.403)" opacity="0.05"/>
    <path id="Path_997" data-name="Path 997" d="M323.029,425.146l-46.7,9.553-1.061-.106-41.043-4.14V378.442l50.242-8.492,36.443,4.246.011.23,0,.113Z" transform="translate(-150.896 -238.407)" fill="#3f3d56"/>
    <path id="Path_998" data-name="Path 998" d="M397.986,433.32l-46.7,9.553-1.061-.106V389.446l45.653-6.846Z" transform="translate(-225.725 -246.575)" opacity="0.1"/>
    <path id="Path_999" data-name="Path 999" d="M320.92,374.539l-.014.011-45.643,6.723-41.043-2.831,50.242-8.492,36.443,4.246.011.23Z" transform="translate(-150.9 -238.567)" opacity="0.05"/>
    <path id="Path_1000" data-name="Path 1000" d="M475.57,479.5,451.2,484.487l-.556-.057-21.42-2.162V455.123l26.222-4.433,19.021,2.218.007.12v.057Z" transform="translate(-276.646 -290.549)" fill="#3f3d56"/>
    <path id="Path_1001" data-name="Path 1001" d="M514.69,483.769l-24.375,4.989-.555-.057V460.874l23.83-3.574Z" transform="translate(-315.722 -294.818)" opacity="0.1"/>
    <path id="Path_1002" data-name="Path 1002" d="M474.47,453.085l-.007.007L450.64,456.6l-21.42-1.479,26.222-4.433,19.021,2.218.007.12Z" transform="translate(-276.649 -290.634)" opacity="0.05"/>
    <path id="Path_1003" data-name="Path 1003" d="M290.57,330.5,266.2,335.483l-.555-.053-21.42-2.162V306.123l26.222-4.433,19.021,2.218.007.12v.057Z" transform="translate(-157.408 -194.513)" fill="#3f3d56"/>
    <path id="Path_1004" data-name="Path 1004" d="M329.69,334.769l-24.375,4.985-.555-.053V311.874l23.83-3.574Z" transform="translate(-196.462 -198.779)" opacity="0.1"/>
    <path id="Path_1005" data-name="Path 1005" d="M289.47,304.085l-.007.007L265.64,307.6l-21.42-1.479,26.222-4.433,19.021,2.218.007.12Z" transform="translate(-157.409 -194.57)" opacity="0.05"/>
    <path id="Path_1006" data-name="Path 1006" d="M411.57,327.5,387.2,332.483l-.556-.053-21.42-2.162V303.123l26.222-4.433,19.021,2.218.007.12v.057Z" transform="translate(-235.396 -192.58)" fill="#63c1ff"/>
    <path id="Path_1007" data-name="Path 1007" d="M450.69,331.769l-24.375,4.985-.555-.053V308.874l23.83-3.574Z" transform="translate(-274.464 -196.846)" opacity="0.1"/>
    <path id="Path_1008" data-name="Path 1008" d="M410.47,301.085l-.007.007L386.64,304.6l-21.42-1.479,26.222-4.433,19.021,2.218.007.12Z" transform="translate(-235.398 -192.636)" opacity="0.05"/>
    <path id="Path_1009" data-name="Path 1009" d="M447.57,250.5,423.2,255.483l-.555-.053-21.42-2.162V226.123l26.222-4.433,19.021,2.218.007.12v.057Z" transform="translate(-258.599 -142.951)" fill="#3f3d56"/>
    <path id="Path_1010" data-name="Path 1010" d="M486.69,254.769l-24.375,4.985-.555-.053V231.874l23.83-3.574Z" transform="translate(-297.672 -147.215)" opacity="0.1"/>
    <path id="Path_1011" data-name="Path 1011" d="M446.47,224.085l-.007.007L422.64,227.6l-21.42-1.479,26.222-4.433,19.021,2.218.007.12Z" transform="translate(-258.602 -142.992)" opacity="0.05"/>
    <path id="Path_1012" data-name="Path 1012" d="M698.968,231.3c-.258,2.3-2.013,4.154-2.664,6.369-.977,3.344.708,6.935,3.029,9.553a21.148,21.148,0,0,0,14.726,6.984,6.336,6.336,0,0,0,2.434-.265,5.286,5.286,0,0,0,1.85-1.267,11.832,11.832,0,0,0,3.05-6.62,35.4,35.4,0,0,0,.085-7.4,4.187,4.187,0,0,0-.276-1.493,3.794,3.794,0,0,0-.959-1.178,22.291,22.291,0,0,0-4.122-3,4.629,4.629,0,0,1-1.727-1.32,4.321,4.321,0,0,1-.534-1.582l-.456-2.321a4.549,4.549,0,0,0-.669-1.882c-.8-1.083-2.342-1.231-3.69-1.284l-4.953-.195c-1.539-.06-3.563-.5-5.067-.2-1.415.28-.938,1.574-.683,2.749A19.879,19.879,0,0,1,698.968,231.3Z" transform="translate(-493.179 -179.407)" fill="#ffc0c6"/>
    <path id="Path_1013" data-name="Path 1013" d="M698.968,231.3c-.258,2.3-2.013,4.154-2.664,6.369-.977,3.344.708,6.935,3.029,9.553a21.148,21.148,0,0,0,14.726,6.984,6.336,6.336,0,0,0,2.434-.265,5.286,5.286,0,0,0,1.85-1.267,11.832,11.832,0,0,0,3.05-6.62,35.4,35.4,0,0,0,.085-7.4,4.187,4.187,0,0,0-.276-1.493,3.794,3.794,0,0,0-.959-1.178,22.291,22.291,0,0,0-4.122-3,4.629,4.629,0,0,1-1.727-1.32,4.321,4.321,0,0,1-.534-1.582l-.456-2.321a4.549,4.549,0,0,0-.669-1.882c-.8-1.083-2.342-1.231-3.69-1.284l-4.953-.195c-1.539-.06-3.563-.5-5.067-.2-1.415.28-.938,1.574-.683,2.749A19.879,19.879,0,0,1,698.968,231.3Z" transform="translate(-493.179 -179.407)" opacity="0.1"/>
    <path id="Path_1014" data-name="Path 1014" d="M746.32,516.4l-2.1,23.041c-.548,6.043-1.107,12.111-2.183,18.077-.354,2.056-.807,4.1-1.323,6.128-1.436,5.629-3.521,11.131-4.193,16.9-.021.166-.039.354-.057.506a15.154,15.154,0,0,1-.708,3.75c-.354.881-.853,1.684-1.217,2.555a16.741,16.741,0,0,0-.909,5.551,23.933,23.933,0,0,0-8.24-2.831c-1.415-.209-2.954-.354-3.892-1.415-1.061-1.153-.938-2.919-.761-4.469q.835-7.218,1.663-14.429a37.6,37.6,0,0,1,1.061-6.128c.191-.669.421-1.327.655-1.985.322-.906.648-1.812.892-2.742a33.017,33.017,0,0,0,.7-4.54c.57-4.84,1.256-9.67,1.858-14.507l.032-.255a148.334,148.334,0,0,0,1.391-22.082c-.028-1.093-.074-2.187-.145-3.283-.1-1.589-.244-2.431,1.061-3.425a24.753,24.753,0,0,1,5.031-2.583c.9-.389,10.753-3.892,10.968-3.121a19.209,19.209,0,0,1,.708,5.031A55.985,55.985,0,0,1,746.32,516.4Z" transform="translate(-509.034 -360.127)" fill="#605d82"/>
    <path id="Path_1015" data-name="Path 1015" d="M748.356,620.717c-.354,2.056-.807,4.1-1.323,6.128-1.436,5.629-3.521,11.131-4.193,16.9-.021.166-.039.354-.057.506-4.394-6.277-8.1-13.028-12.384-19.372.322-.906.648-1.812.892-2.742a33.026,33.026,0,0,0,.736-4.568c.57-4.84,1.256-9.67,1.858-14.507l.032-.255a15.028,15.028,0,0,0,1.062,2.976c2.88,5.852,9.723,8.81,13.07,14.411Q748.215,620.459,748.356,620.717Z" transform="translate(-515.364 -423.325)" opacity="0.1"/>
    <path id="Path_1016" data-name="Path 1016" d="M680.334,455.961a108.814,108.814,0,0,0,1.645,13.979l1.546,9.553c.846,5.237,1.73,10.576,4.207,15.264,1.854,3.51,4.522,6.5,6.938,9.649,5.937,7.735,10.4,16.5,16.028,24.46,1.638,2.314,3.977,4.819,6.769,4.334,1.833-.315,3.163-1.843,4.6-3.018,1.7-1.387,3.743-2.4,5.081-4.143s1.6-4.628-.212-5.866a9.779,9.779,0,0,0-2.073-.849c-2.806-1.061-4.624-3.807-5.778-6.581s-1.858-5.75-3.4-8.329c-3.347-5.6-10.194-8.559-13.074-14.415-1.613-3.276-1.769-7.076-1.889-10.71l-.315-9.309a6.781,6.781,0,0,1,.354-3.007c1.1-2.477,4.426-2.71,7.122-3.025a24.325,24.325,0,0,0,8.729-2.753,9.053,9.053,0,0,0,3.892-3.464,11.129,11.129,0,0,0,.948-4.688l.934-16.874a10.641,10.641,0,0,0-.354-4.313c-1.284-3.418-5.6-4.536-9.249-4.373-6.786.3-13.049,3.223-19.46,5.2a49.737,49.737,0,0,1-4.823,1.256c-1.415.287-3.184.17-4.543.63-2.434.821-2.374,6.149-2.717,8.357A70.153,70.153,0,0,0,680.334,455.961Z" transform="translate(-482.988 -310.022)" fill="#605d82"/>
    <path id="Path_1017" data-name="Path 1017" d="M780.252,708.4a4.326,4.326,0,0,1,.948,2.325,79.314,79.314,0,0,1,1.344,14.05,2.329,2.329,0,0,0,.251,1.274,1.625,1.625,0,0,0,.662.531c1.73.824,3.736-.326,5.18-1.589,2.671-2.339,4.932-5.481,5.084-9.029a20.787,20.787,0,0,1,.1-2.739,11.4,11.4,0,0,1,1.7-3.669,31.156,31.156,0,0,0,2.831-6.305c.262-.828.439-1.868-.212-2.445a2.275,2.275,0,0,0-.768-.4l-7.819-2.9c-.679-.251-2.364,4.076-2.629,4.55a3.582,3.582,0,0,1-2.618,2.08c-1.313.269-2.933-.12-4.186.548C777.995,705.808,779.053,707.192,780.252,708.4Z" transform="translate(-546.626 -484.506)" fill="#535070"/>
    <path id="Path_1018" data-name="Path 1018" d="M732.408,733.408a2.383,2.383,0,0,0-.594-.754,2.664,2.664,0,0,0-1.2-.407c-1.486-.255-3.248-.421-4.278.686-.962,1.037-.8,2.724-1.6,3.892a12.115,12.115,0,0,0-.821,1.061,3.984,3.984,0,0,0-.354,1.9c-.042,1.8-.085,3.609.042,5.406a7.545,7.545,0,0,0,1.3,4.271c1.514,1.9,4.246,2.169,6.666,2.289l1.964.1a3.891,3.891,0,0,0,1.606-.149,2.636,2.636,0,0,0,1.387-1.525c1.023-2.54-.594-5.275-1.592-7.823C733.784,739.43,733.99,736.179,732.408,733.408Z" transform="translate(-510.941 -506.844)" fill="#535070"/>
    <path id="Path_1019" data-name="Path 1019" d="M690.477,182.358a1.6,1.6,0,0,1,.11-.757c.287-.506,1.037-.354,1.6-.226,2.275.573,4.674.053,7.02.188s4.985,1.306,5.456,3.605a17.058,17.058,0,0,0,4.327-4.444,5.332,5.332,0,0,0,1.129-3.255c-.127-1.684-1.539-2.944-2.831-4.012l-3.892-3.184a5.912,5.912,0,0,0-1.748-1.111A8.7,8.7,0,0,0,698.82,169c-2.831,0-5.866-1.291-8.389,0a8.954,8.954,0,0,0-2.615,2.378l-3.478,4.118a2.2,2.2,0,0,0-.559.945,4.156,4.156,0,0,0,.251,1.5c.163.92-.234,1.9.071,2.788.506,1.465,2.289,1.674,3.379,2.516.4.311,1.04,1.376,1.525,1.362C689.858,184.595,690.452,183.038,690.477,182.358Z" transform="translate(-485.271 -143.636)" fill="#3f3d56"/>
    <ellipse id="Ellipse_95" data-name="Ellipse 95" cx="11.145" cy="11.145" rx="11.145" ry="11.145" transform="translate(199.958 28.578)" fill="#ffc0c6"/>
    <path id="Path_1020" data-name="Path 1020" d="M677.823,257.652a5.4,5.4,0,0,0-5.24-3.616,1.575,1.575,0,0,1-.969-.124,1.341,1.341,0,0,1-.4-.5,19.718,19.718,0,0,1-1.624-3.842c-.177-.591-.421-1.288-1.019-1.44a1.367,1.367,0,0,0-1.295.566,12.389,12.389,0,0,1-.927,1.164c-1.415,1.253-3.892.11-5.375,1.26-.244.188-.446.428-.708.6a3.222,3.222,0,0,1-.817.354,78.326,78.326,0,0,0-8.449,3.3c.991,5.958,2,12.03,4.324,17.6,1.1,2.654,2.353,5.254,3.237,7.989,1.96,6.061,2.045,12.546,2.07,18.919,0,4.359,0,8.81-1.415,12.936a12.52,12.52,0,0,0-.8,2.831,2.944,2.944,0,0,0,1,2.647,3.365,3.365,0,0,0,1.539.541c2.445.354,4.907-.29,7.313-.849a196.857,196.857,0,0,1,19.595-3.184l11-1.415a6.437,6.437,0,0,0,2.279-.591c2.013-1.1,2.2-4.129.952-6.054-.6-.923-1.444-1.681-1.95-2.657a2.468,2.468,0,0,1,.322-3.025c1.769-1.38,1.238-3.938,1.323-6.174q.354-9.383-.1-18.752a36.7,36.7,0,0,1-.064-3.892,34.345,34.345,0,0,1,1.214-6.5l3.344-13.162a6.862,6.862,0,0,0-4.129-2.654c-1.582-.4-3.234-.513-4.794-1-3.184-.991-6.043-3.5-9.38-3.269a1.716,1.716,0,0,0-.729.177c-.75.428-.633,1.511-.679,2.374-.106,1.914-1.514,3.51-3.064,4.632a55.344,55.344,0,0,0-4.752,3.213,2.123,2.123,0,0,0-.842,1.585Z" transform="translate(-464.071 -193.243)" fill="#3f3d56"/>
    <path id="Path_1021" data-name="Path 1021" d="M591.181,307.275a13.091,13.091,0,0,1-2.342,1.207,7.786,7.786,0,0,0-2.247,1.09,3.555,3.555,0,0,0-.782.966,4.292,4.292,0,0,0,3.956,6.394,8.625,8.625,0,0,0,2.926-.874l7.862-3.421c1.33-.577,2.767-1.249,3.4-2.558a.616.616,0,0,0,.078-.407.668.668,0,0,0-.325-.354A17.609,17.609,0,0,1,599.128,305c-.322-.439-.708-1.472-1.175-1.737C596.29,302.339,592.515,306.412,591.181,307.275Z" transform="translate(-421.791 -230.368)" fill="#ffc0c6"/>
    <path id="Path_1022" data-name="Path 1022" d="M805.255,307l2.9,3.312c.623.708,1.245,1.415,1.812,2.18a25.36,25.36,0,0,1,3.319,6.252,10.932,10.932,0,0,1,.934,5.169,12.732,12.732,0,0,1-.725,2.629,32.5,32.5,0,0,1-1.971,4.741,26.977,26.977,0,0,1-2.2,3.315,77.523,77.523,0,0,1-7.349,8.4,9.452,9.452,0,0,0-1.836,3.892c-.8,2.445-2.689,4.352-4.518,6.156a12.447,12.447,0,0,1-1.942,1.67,6.3,6.3,0,0,1-3.538,1,3.892,3.892,0,0,1-1.589-.329,4.11,4.11,0,0,1-2.02-3.421,7.325,7.325,0,0,1,.609-3.666c1.663-3.683,5.934-5.279,8.952-7.968a29.216,29.216,0,0,0,4.462-5.513,19.125,19.125,0,0,0,2.254-3.952c.672-1.8.41-3.931,1-5.757.248-.775.708-1.472.959-2.24a2.653,2.653,0,0,0-.134-2.339,3.379,3.379,0,0,0-1.313-.962c-1.928-.977-4.087-2.236-4.455-4.37a4.678,4.678,0,0,1,.863-3.336,13.8,13.8,0,0,1,2.431-2.548C802.99,308.567,804.409,307.729,805.255,307Z" transform="translate(-551.493 -232.81)" fill="#ffc0c6"/>
    <path id="Path_1023" data-name="Path 1023" d="M572.28,322.56a5.362,5.362,0,0,0-2.183-2.6,4.019,4.019,0,0,0-3.184,0,12.073,12.073,0,0,0-2.788,1.684l-2.5,1.843a6.147,6.147,0,0,0-1.483,1.369,5.7,5.7,0,0,0-.771,2.123,15.419,15.419,0,0,0-.393,5.24c.4,2.831,2.095,5.279,3.963,7.43,1.168,1.337,2.611,2.689,4.387,2.749a2.013,2.013,0,0,0,1.939-.977,2.418,2.418,0,0,0,.173-.87c.191-3.142-.934-6.21-2.243-9.072a5.612,5.612,0,0,1-.708-2.438.659.659,0,0,1,.106-.41.687.687,0,0,1,.425-.209c1.794-.354,4.886,1.04,6.142-.952C573.978,326.155,572.86,323.731,572.28,322.56Z" transform="translate(-404.799 -240.994)" fill="#ffc0c6"/>
    <path id="Path_1024" data-name="Path 1024" d="M688.83,172.448a1.648,1.648,0,0,1,.113-.757c.287-.51,1.037-.354,1.6-.226,2.275.573,4.674.053,7.02.188s4.982,1.306,5.456,3.605a17.171,17.171,0,0,0,4.327-4.444,5.349,5.349,0,0,0,1.129-3.259c-.127-1.684-1.543-2.944-2.831-4.009l-3.892-3.184a5.9,5.9,0,0,0-1.744-1.111,8.7,8.7,0,0,0-2.831-.159c-2.831,0-5.866-1.291-8.389,0a8.954,8.954,0,0,0-2.615,2.378l-3.482,4.118a2.2,2.2,0,0,0-.555.945,4.159,4.159,0,0,0,.251,1.5c.163.92-.234,1.9.071,2.785.506,1.468,2.289,1.677,3.379,2.519.4.311,1.04,1.376,1.525,1.362C688.2,174.685,688.8,173.128,688.83,172.448Z" transform="translate(-484.214 -137.233)" fill="#3f3d56"/>
    <path id="Path_1025" data-name="Path 1025" d="M623.295,277.445a4.62,4.62,0,0,0-1.168,1.086c-.407.619-.492,1.415-.842,2.052-.75,1.394-2.509,1.893-3.6,3.036a1.129,1.129,0,0,0-.354.594,1.312,1.312,0,0,0,.294.856l5.286,8.308c1.769.156,3.446-.948,5.208-.8a5.253,5.253,0,0,0,1.96.085,5.7,5.7,0,0,0,1.256-.768c1.062-.665,2.448-.743,3.329-1.617a4.453,4.453,0,0,0,.945-3.351,13.225,13.225,0,0,0-.315-3.078c-.778-3.184-3.216-5.64-4.745-8.463-.747-1.376-1.15-2.18-2.724-1.235S624.784,276.355,623.295,277.445Z" transform="translate(-442.468 -211.417)" fill="#3f3d56"/>
    <path id="Path_1026" data-name="Path 1026" d="M799.028,267.213a12.41,12.41,0,0,1,2.661,2.328c.8,1.037,1.26,2.31,2.034,3.372a36.815,36.815,0,0,0,2.618,2.774,21.145,21.145,0,0,1,3.022,4.922,73.817,73.817,0,0,1-6.836,7.713,2.191,2.191,0,0,1-1.04.679,1.667,1.667,0,0,1-1.465-.6c-.382-.4-.651-.892-1.015-1.306a5.219,5.219,0,0,0-3.23-1.56,22.19,22.19,0,0,0-3.662-.053,1.415,1.415,0,0,1-.782-.131,1.292,1.292,0,0,1-.425-.488c-1.415-2.434-.973-5.491-.467-8.272l1.157-6.369a14.307,14.307,0,0,1,.966-3.538c.439-.938,1.415-2.53,2.625-2.247S798.005,266.477,799.028,267.213Z" transform="translate(-553.752 -205.393)" fill="#3f3d56"/>
    <path id="Path_1027" data-name="Path 1027" d="M320.57,253.5,296.2,258.483l-.556-.053-21.42-2.162V229.123l26.222-4.433,19.021,2.218.007.12v.057Z" transform="translate(-176.744 -144.884)" fill="#63c1ff"/>
    <path id="Path_1028" data-name="Path 1028" d="M359.69,257.769l-24.375,4.985-.555-.053V234.874l23.83-3.574Z" transform="translate(-215.802 -149.149)" opacity="0.1"/>
    <path id="Path_1029" data-name="Path 1029" d="M319.47,227.085l-.007.007L295.64,230.6l-21.42-1.479,26.222-4.433,19.021,2.218.007.12Z" transform="translate(-176.745 -144.927)" opacity="0.05"/>
    <path id="Path_1030" data-name="Path 1030" d="M356.57,177.5,332.2,182.487l-.556-.057-21.42-2.162V153.123l26.222-4.433,19.021,2.218.007.12v.057Z" transform="translate(-199.947 -95.899)" fill="#3f3d56"/>
    <path id="Path_1031" data-name="Path 1031" d="M395.69,181.769l-24.375,4.989-.555-.057V158.874l23.83-3.574Z" transform="translate(-239.009 -100.163)" opacity="0.1"/>
    <path id="Path_1032" data-name="Path 1032" d="M355.47,151.085l-.007.007L331.64,154.6l-21.42-1.479,26.222-4.433,19.021,2.218.007.12Z" transform="translate(-199.949 -95.927)" opacity="0.05"/>
  </g>
</svg>
