<svg xmlns="http://www.w3.org/2000/svg" xmlns:xlink="http://www.w3.org/1999/xlink" width="1129.144" height="1182.837" viewBox="0 0 1129.144 1182.837">
  <defs>
    <linearGradient id="linear-gradient" y1="1" x2="1" gradientUnits="objectBoundingBox">
      <stop offset="0" stop-color="#16075e"/>
      <stop offset="1" stop-color="#7313b3"/>
    </linearGradient>
  </defs>
  <g id="Blob_Header" data-name="Blob Header" transform="translate(-0.004)">
    <g id="Layer_2" data-name="Layer 2" transform="translate(0.003)">
      <path id="Path_373" data-name="Path 373" d="M215.607,62.413c-4.894,7.66-9.532,15.447-13.915,23.291-32.98,59.023-55.845,125.918-50.881,193.352,5.674,76.5,45.916,145.692,66.058,219.708A425.444,425.444,0,0,1,226.6,675.691c-7.873,50.214-27.873,102.868-71.307,129.266-36.143,22.015-83.265,22.412-116.613,48.413C2.055,881.951-7.675,935.8,5.758,980.266s45.873,80.754,81.321,110.769c84.328,71.434,202.842,116.06,306.49,77.732C488.408,1133.7,547.715,1039.955,631.986,984.1c66.668-44.157,154.174-62.938,228.034-32.384,49.108,20.327,87.449,59.689,123.762,98.5s73.321,79.052,121.251,102.031a171.521,171.521,0,0,0,24.114,9.376C1129.1,686.925,1129.1,0,1129.1,0H265.254a361.71,361.71,0,0,0-49.647,62.413Z" transform="translate(-0.003)" fill="url(#linear-gradient)"/>
    </g>
  </g>
</svg>
