<svg id="Blob_Getting_Started_sign_up_" data-name="Blob Getting Started (sign up)" xmlns="http://www.w3.org/2000/svg" width="283.834" height="250" viewBox="0 0 283.834 250">
  <path id="Path_893" data-name="Path 893" d="M440.641,141.294c-13.107-52.609-58.4-90.586-111.557-92.109-28.1-.805-57.677,8.709-79.209,42-38.49,59.516,2.365,100.643,30.849,120.186a179.535,179.535,0,0,1,36.839,33.8c19.24,23.3,56.252,52.263,100.332,6.889C449.844,219.172,449.372,176.337,440.641,141.294Z" transform="translate(-203.665 -49.139)" fill="#fff"/>
  <ellipse id="Ellipse_81" data-name="Ellipse 81" cx="141.879" cy="7.858" rx="141.879" ry="7.858" transform="translate(0 217.883)" fill="#3f3d56"/>
  <ellipse id="Ellipse_82" data-name="Ellipse 82" cx="60.833" cy="3.075" rx="60.833" ry="3.075" transform="translate(162.169 235.65)" fill="#3f3d56"/>
  <ellipse id="Ellipse_83" data-name="Ellipse 83" cx="60.833" cy="3.075" rx="60.833" ry="3.075" transform="translate(63.801 243.85)" fill="#3f3d56"/>
  <path id="Path_894" data-name="Path 894" d="M821.235,399.3s10.334-.151,8.133,2.957-10.744,2.891-10.744,2.891Z" transform="translate(-609.274 -290.338)" fill="#ffb9b9"/>
  <path id="Path_895" data-name="Path 895" d="M706.451,287.149l10.458,14.2,9.042,10.8s9.369,9.773,10.414,11.125,4.115.965,3.461,3.025-1.628,5.491-2.648,5.848-5.813-.257-6.164-.935-22.747-13.336-30.74-22.446l-7.606-5.163-.114-8.735Z" transform="translate(-524.712 -214.331)" fill="#63c1ff"/>
  <path id="Path_896" data-name="Path 896" d="M706.451,287.149l10.458,14.2,9.042,10.8s9.369,9.773,10.414,11.125,4.115.965,3.461,3.025-1.628,5.491-2.648,5.848-5.813-.257-6.164-.935-22.747-13.336-30.74-22.446l-7.606-5.163-.114-8.735Z" transform="translate(-524.712 -214.331)" fill="#ff6584"/>
  <path id="Path_897" data-name="Path 897" d="M706.451,287.149l10.458,14.2,9.042,10.8s9.369,9.773,10.414,11.125,4.115.965,3.461,3.025-1.628,5.491-2.648,5.848-5.813-.257-6.164-.935-22.747-13.336-30.74-22.446l-7.606-5.163-.114-8.735Z" transform="translate(-524.712 -214.331)" opacity="0.1"/>
  <path id="Path_898" data-name="Path 898" d="M704.412,223.095l2.174,5.125h1.926l-2.733-12.984c0-8.334-4.022-15.375-12.356-15.375h0A10.536,10.536,0,0,0,682.887,210.4v12.733a5.089,5.089,0,0,0,5.089,5.089h14.941Z" transform="translate(-516.565 -153.381)" fill="#2f2e41"/>
  <path id="Path_899" data-name="Path 899" d="M594.987,651.361s-3.075,4.1-3.075,5.125-1.708,1.367-2.733,2.392-2.05.683-1.367,1.708-8.542,7.175-8.542,7.175l-8.884,11.617,2.392,2.05,6.833-7.175L578.587,686.9l9.567,8.884s4.1.683,4.442,0-3.417-7.517-3.417-7.517.342-6.15,2.392-8.542a34.87,34.87,0,0,0,3.417-4.783s-1.025-1.367,1.367-1.708.683-2.392.683-2.392a6.985,6.985,0,0,1,2.733-.342c2.05,0,11.275-9.909,11.275-9.909Z" transform="translate(-439.614 -469.525)" fill="#2f2e41"/>
  <path id="Path_900" data-name="Path 900" d="M749.033,678.411s-1.367,4.783,1.025,7.517,0,2.05,0,2.05a3.444,3.444,0,0,1-1.025,3.075,4.226,4.226,0,0,0-1.367,3.075s-1.708,3.417-1.367,5.467.342,12.3.342,12.3h3.417v-8.884l6.833,8.884h17.084a2.727,2.727,0,0,0-2.05-2.05c-1.708-.342-6.833,0-7.858-7.175,0,0-.342-4.1-1.025-4.783a5.4,5.4,0,0,1-.683-4.783c.683-1.708,0-2.392,1.025-3.075a3.119,3.119,0,0,0,.683-3.758c-.683-1.025-2.733-2.733-.342-3.758s2.392-6.15,2.392-6.15Z" transform="translate(-560.488 -485.983)" fill="#2f2e41"/>
  <path id="Path_901" data-name="Path 901" d="M656.007,419.32s-3.758,3.075,1.025,15.717,6.833,29.042,6.833,29.042-4.784,4.1-4.784,6.15-21.184,15.034-19.817,20.842,26.309,16.742,28.7,16.059,14.009-33.484,14.009-33.484-4.442-36.217-4.783-36.559S666.6,420,666.6,420l-6.15-12.642Z" transform="translate(-487.413 -301.785)" fill="#2f2e41"/>
  <path id="Path_902" data-name="Path 902" d="M656.007,419.32s-3.758,3.075,1.025,15.717,6.833,29.042,6.833,29.042-4.784,4.1-4.784,6.15-21.184,15.034-19.817,20.842,26.309,16.742,28.7,16.059,14.009-33.484,14.009-33.484-4.442-36.217-4.783-36.559S666.6,420,666.6,420l-6.15-12.642Z" transform="translate(-487.413 -301.785)" opacity="0.1"/>
  <path id="Path_903" data-name="Path 903" d="M686.286,402.9a27.018,27.018,0,0,0,3.758,20.159c6.492,10.25,14.009,31.434,14.009,31.434s7.175,22.209,4.1,38.267c0,0-1.025,2.05,1.708,2.05s31.434-.683,29.042-7.858S725.921,446.3,725.921,446.3L712.254,412.47l-.683-10.25-5.125-7.858H695.853Z" transform="translate(-520.41 -292.677)" fill="#2f2e41"/>
  <path id="Path_904" data-name="Path 904" d="M531.3,449.361s-10.335,0-8.089,3.075,10.785,2.733,10.785,2.733Z" transform="translate(-405.434 -324.82)" fill="#ffb9b9"/>
  <path id="Path_905" data-name="Path 905" d="M701.986,242.861s.683,4.783-1.708,5.467,9.567,5.808,9.567,5.808,2.392-8.2,3.417-9.225S701.986,242.861,701.986,242.861Z" transform="translate(-527.617 -182.701)" fill="#ffb9b9"/>
  <path id="Path_906" data-name="Path 906" d="M701.986,242.861s.683,4.783-1.708,5.467,9.567,5.808,9.567,5.808,2.392-8.2,3.417-9.225S701.986,242.861,701.986,242.861Z" transform="translate(-527.617 -182.701)" opacity="0.1"/>
  <path id="Path_907" data-name="Path 907" d="M669.328,257.486s-10.592-3.075-10.934-4.1-2.733,1.367-3.758,3.075-3.075,3.758-4.1,3.758-8.542,4.442-10.25,12.3a15.981,15.981,0,0,1-2.929,6.9,6.592,6.592,0,0,0-1.327,3.417.333.333,0,0,1-.187.27c-.683.342,14.35,14.692,14.35,14.692s5.808-1.367,6.833,0-.683,3.758-1.708,5.125-3.417,8.2-2.05,9.225,8.542-9.225,12.642-7.175a10.68,10.68,0,0,0,8.2.342s1.708,5.467,4.442,5.467,3.417-4.442,2.392-5.808-5.125-4.1-3.075-7.858,2.733-10.592,2.733-10.592,5.467-6.492-4.442-14.35c0,0-3.417-9.567-4.442-10.25s-2.733-1.025-2.733-1.708S669.328,257.486,669.328,257.486Z" transform="translate(-485.296 -191.2)" fill="#ff6584"/>
  <path id="Path_908" data-name="Path 908" d="M575.5,335.861l-10.25,14.35-8.884,10.934s-9.225,9.909-10.25,11.275-4.1,1.025-3.417,3.075,1.708,5.467,2.733,5.808,5.808-.342,6.15-1.025,22.55-13.667,30.409-22.892l7.53-5.273-.013-8.735Z" transform="translate(-420.691 -248.159)" fill="#ff6584"/>
  <path id="Path_909" data-name="Path 909" d="M697.773,384.938l19.806.632a.86.86,0,0,1,.834.86v.316a.86.86,0,0,1-.9.859l-19.805-.948a.86.86,0,0,1-.821-.859h0a.86.86,0,0,1,.886-.86Z" transform="translate(-525.983 -280.325)" fill="#2f2e41"/>
  <ellipse id="Ellipse_84" data-name="Ellipse 84" cx="0.342" cy="1.879" rx="0.342" ry="1.879" transform="translate(191.111 104.549)" fill="#2f2e41"/>
  <circle id="Ellipse_85" data-name="Ellipse 85" cx="9.567" cy="9.567" r="9.567" transform="translate(171.359 47.591)" fill="#ffb9b9"/>
  <path id="Path_910" data-name="Path 910" d="M693.019,200.319a40.242,40.242,0,0,0-6.892-.457,11.8,11.8,0,0,0-11.8,11.8l-4.442,16.56h8.646l1.6-6.15,2.278,6.15h4.352l.374-3.7,1.473,3.7h4.848c-3.631-8.215-5.562-15.7-.792-20.325,3.221.439,5.938-.424,6.381-2.17C699.561,203.712,696.861,201.292,693.019,200.319Z" transform="translate(-507.802 -153.381)" fill="#2f2e41"/>
  <path id="Path_911" data-name="Path 911" d="M736.683,277.722" transform="translate(-552.144 -206.443)" fill="#2f2e41"/>
  <path id="Path_912" data-name="Path 912" d="M168.526,292.738a4.788,4.788,0,0,1-4.168-7.175c6.082-10.25,24.566-34.2,64.952-34.2,17.494,0,32.835,4.647,45.579,13.8a77.328,77.328,0,0,1,19.168,20.125,4.748,4.748,0,0,1-1.264,6.629,4.86,4.86,0,0,1-6.7-1.264c-5.091-7.38-20.535-29.794-56.786-29.794-35.4,0-51.388,20.637-56.615,29.486a4.717,4.717,0,0,1-4.168,2.392Z" transform="translate(-157.285 -189.376)" fill="#63c1ff"/>
  <path id="Path_913" data-name="Path 913" d="M260.012,420.792a4.759,4.759,0,0,1-1.2-.137c-29.281-7.346-40.215-36.935-40.659-38.165l-.068-.273c-.239-.854-6.116-21.15,2.9-33.04,4.134-5.433,10.421-8.2,18.724-8.2,7.722,0,13.291,2.426,17.118,7.448,3.143,4.1,4.408,9.157,5.638,14.043,2.563,10.148,4.408,15.478,15.068,16.025a11,11,0,0,0,9.5-4.886c4.715-6.423,5.535-16.913,1.982-26.138-4.578-11.959-20.774-34.475-49.338-34.475a50.09,50.09,0,0,0-32.391,11.412,52.584,52.584,0,0,0-16.2,23.849c-5.262,16.674,1.64,42.88,1.708,43.119a4.739,4.739,0,0,1-3.417,5.808,4.853,4.853,0,0,1-5.911-3.383c-.307-1.2-7.688-29.145-1.606-48.415a60.725,60.725,0,0,1,96.659-27.812c8.678,7.175,15.785,16.81,19.475,26.446,4.715,12.3,3.451,26.1-3.212,35.124-4.442,6.013-10.763,9.157-17.767,8.815-18.245-.923-21.525-13.8-23.917-23.2-2.46-9.635-4.032-14.282-13.428-14.282-5.159,0-8.781,1.435-11.036,4.408-3.075,4.066-3.314,10.421-2.973,15.034q.005.072.01.144a38.926,38.926,0,0,0,5.2,16.64c4.743,8.178,14.364,20.721,30.327,24.729a4.746,4.746,0,0,1,3.485,5.774,4.851,4.851,0,0,1-4.681,3.588Z" transform="translate(-167.658 -229.843)" fill="#63c1ff"/>
  <path id="Path_914" data-name="Path 914" d="M257.488,453.891a4.865,4.865,0,0,1-3.519-1.5c-11.719-12.437-18.348-26.343-20.842-43.734v-.1c-1.4-11.514.649-27.812,10.694-39.019,7.414-8.268,17.835-12.471,30.921-12.471,15.478,0,27.641,7.278,35.227,21.013A59.062,59.062,0,0,1,316.6,398.4a4.826,4.826,0,1,1-9.6.991,49.458,49.458,0,0,0-5.637-16.981c-5.877-10.489-14.829-15.819-26.651-15.819-10.216,0-18.211,3.109-23.712,9.259-7.927,8.849-9.464,22.482-8.371,31.5,2.187,15.375,8.029,27.607,18.348,38.541a4.726,4.726,0,0,1-.239,6.731A4.847,4.847,0,0,1,257.488,453.891Z" transform="translate(-202.718 -266.067)" fill="#63c1ff"/>
  <circle id="Ellipse_86" data-name="Ellipse 86" cx="6.15" cy="6.15" r="6.15" transform="translate(59.946 131.845)" fill="#63c1ff"/>
</svg>
