<svg xmlns="http://www.w3.org/2000/svg" xmlns:xlink="http://www.w3.org/1999/xlink" width="600" height="536.041" viewBox="0 0 600 536.041">
  <defs>
    <linearGradient id="linear-gradient" y1="0.5" x2="1" y2="0.5" gradientUnits="objectBoundingBox">
      <stop offset="0" stop-color="gray" stop-opacity="0.251"/>
      <stop offset="0.535" stop-color="gray" stop-opacity="0.122"/>
      <stop offset="1" stop-color="gray" stop-opacity="0.102"/>
    </linearGradient>
  </defs>
  <g id="Blob_Safety_First" data-name="Blob Safety First" transform="translate(0)">
    <path id="Path_1034" data-name="Path 1034" d="M525.122,76.854,332,192.418s0,238.35,193.124,368.36c193.125-130.009,193.125-368.36,193.125-368.36Z" transform="translate(-223.988 -69.159)" fill="#3f3d56"/>
    <path id="Path_1035" data-name="Path 1035" d="M602,76.854l-3.3,1.975V558.523c1.1.754,2.192,1.508,3.3,2.254,193.124-130.009,193.124-368.36,193.124-368.36Z" transform="translate(-303.204 -69.159)" fill="#6c63ff" opacity="0.04"/>
    <g id="Group_10" data-name="Group 10" transform="translate(239.391 210.231)" opacity="0.7">
      <path id="Path_1036" data-name="Path 1036" d="M360.091,334.485,396.5,367.858,441.63,302.75l18.2,15.17L396.5,398.2l-51.577-57.645Z" transform="translate(-344.921 -302.75)" fill="url(#linear-gradient)"/>
    </g>
    <path id="Path_1037" data-name="Path 1037" d="M373.227,336.206l29.533,27.072L444.6,301.75l14.767,12.306-56.605,73.833-41.838-46.761Z" transform="translate(-110.172 -92.082)" fill="#3ad29f"/>
    <path id="Path_1038" data-name="Path 1038" d="M332.1,112.132a2.631,2.631,0,0,1-1.466-3.18,1.262,1.262,0,0,0,.057-.292h0a1.319,1.319,0,0,0-2.371-.874h0a1.264,1.264,0,0,0-.146.259,2.631,2.631,0,0,1-3.18,1.466,1.265,1.265,0,0,0-.292-.057h0a1.319,1.319,0,0,0-.874,2.371h0a1.265,1.265,0,0,0,.259.146,2.631,2.631,0,0,1,1.466,3.18,1.265,1.265,0,0,0-.057.292h0a1.319,1.319,0,0,0,2.371.874h0a1.267,1.267,0,0,0,.146-.259,2.631,2.631,0,0,1,3.18-1.466,1.264,1.264,0,0,0,.292.057h0a1.319,1.319,0,0,0,.874-2.37h0a1.266,1.266,0,0,0-.259-.146Z" transform="translate(-213.747 -77.793)" fill="#4d8af0" opacity="0.5"/>
    <path id="Path_1039" data-name="Path 1039" d="M186.1,437.132a2.631,2.631,0,0,1-1.466-3.18,1.265,1.265,0,0,0,.057-.292h0a1.319,1.319,0,0,0-2.37-.874h0a1.266,1.266,0,0,0-.146.259,2.631,2.631,0,0,1-3.18,1.466,1.265,1.265,0,0,0-.292-.057h0a1.319,1.319,0,0,0-.874,2.371h0a1.265,1.265,0,0,0,.259.146,2.631,2.631,0,0,1,1.466,3.18,1.265,1.265,0,0,0-.057.292h0a1.319,1.319,0,0,0,2.37.874h0a1.265,1.265,0,0,0,.146-.259,2.631,2.631,0,0,1,3.18-1.466,1.265,1.265,0,0,0,.292.057h0a1.319,1.319,0,0,0,.874-2.37h0A1.266,1.266,0,0,0,186.1,437.132Z" transform="translate(-172.292 -176.742)" fill="#4d8af0" opacity="0.5"/>
    <circle id="Ellipse_96" data-name="Ellipse 96" cx="4.296" cy="4.296" r="4.296" transform="translate(516.22 173.075)" fill="#f55f44" opacity="0.5"/>
    <circle id="Ellipse_97" data-name="Ellipse 97" cx="4.296" cy="4.296" r="4.296" transform="translate(82.63 471.033)" fill="#f55f44" opacity="0.5"/>
    <circle id="Ellipse_98" data-name="Ellipse 98" cx="4.296" cy="4.296" r="4.296" transform="translate(589.259 334.285)" fill="#f55f44" opacity="0.5"/>
    <path id="Path_1040" data-name="Path 1040" d="M871.1,141.132a2.631,2.631,0,0,1-1.466-3.18,1.261,1.261,0,0,0,.057-.292h0a1.319,1.319,0,0,0-2.37-.874h0a1.265,1.265,0,0,0-.146.259,2.631,2.631,0,0,1-3.18,1.466,1.263,1.263,0,0,0-.292-.057h0a1.319,1.319,0,0,0-.874,2.371h0a1.265,1.265,0,0,0,.259.146,2.631,2.631,0,0,1,1.466,3.18,1.265,1.265,0,0,0-.057.292h0a1.319,1.319,0,0,0,2.37.874h0a1.264,1.264,0,0,0,.146-.259,2.631,2.631,0,0,1,3.18-1.466,1.264,1.264,0,0,0,.292.057h0a1.319,1.319,0,0,0,.875-2.37h0A1.263,1.263,0,0,0,871.1,141.132Z" transform="translate(-382.17 -86.027)" fill="#4d8af0" opacity="0.5"/>
    <path id="Path_1041" data-name="Path 1041" d="M971.1,769.132a2.631,2.631,0,0,1-1.466-3.18,1.271,1.271,0,0,0,.057-.292h0a1.319,1.319,0,0,0-2.37-.874h0a1.263,1.263,0,0,0-.146.259,2.632,2.632,0,0,1-3.18,1.466,1.26,1.26,0,0,0-.292-.057h0a1.319,1.319,0,0,0-.874,2.37h0a1.267,1.267,0,0,0,.259.146,2.631,2.631,0,0,1,1.466,3.18,1.259,1.259,0,0,0-.057.292h0a1.319,1.319,0,0,0,2.37.875h0a1.259,1.259,0,0,0,.146-.259,2.631,2.631,0,0,1,3.18-1.466,1.265,1.265,0,0,0,.292.057h0a1.319,1.319,0,0,0,.874-2.37h0a1.267,1.267,0,0,0-.259-.146Z" transform="translate(-410.564 -278.081)" fill="#4d8af0" opacity="0.5"/>
    <path id="Path_1042" data-name="Path 1042" d="M179.1,247.132a2.631,2.631,0,0,1-1.466-3.18,1.266,1.266,0,0,0,.057-.292h0a1.319,1.319,0,0,0-2.371-.874h0a1.264,1.264,0,0,0-.146.259,2.631,2.631,0,0,1-3.18,1.466,1.265,1.265,0,0,0-.292-.057h0a1.319,1.319,0,0,0-.874,2.371h0a1.265,1.265,0,0,0,.259.146,2.631,2.631,0,0,1,1.466,3.18,1.265,1.265,0,0,0-.057.292h0a1.319,1.319,0,0,0,2.371.874h0a1.264,1.264,0,0,0,.146-.259,2.631,2.631,0,0,1,3.18-1.466,1.265,1.265,0,0,0,.292.057h0a1.319,1.319,0,0,0,.874-2.37h0A1.266,1.266,0,0,0,179.1,247.132Z" transform="translate(-170.305 -119.333)" fill="#4d8af0" opacity="0.5"/>
    <circle id="Ellipse_99" data-name="Ellipse 99" cx="4.296" cy="4.296" r="4.296" transform="translate(52.556 194.011)" fill="#47e6b1" opacity="0.5"/>
    <circle id="Ellipse_100" data-name="Ellipse 100" cx="4.296" cy="4.296" r="4.296" transform="translate(591.407 227.509)" fill="#47e6b1" opacity="0.5"/>
    <g id="Group_11" data-name="Group 11" transform="translate(402.211)" opacity="0.5">
      <rect id="Rectangle_1541" data-name="Rectangle 1541" width="2.148" height="12.173" transform="translate(5.012)" fill="#47e6b1"/>
      <rect id="Rectangle_1542" data-name="Rectangle 1542" width="2.148" height="12.173" transform="translate(12.173 5.013) rotate(90)" fill="#47e6b1"/>
    </g>
    <g id="Group_12" data-name="Group 12" transform="translate(409.887 463.157)" opacity="0.5">
      <rect id="Rectangle_1543" data-name="Rectangle 1543" width="2.148" height="12.173" transform="translate(5.012)" fill="#47e6b1"/>
      <rect id="Rectangle_1544" data-name="Rectangle 1544" width="2.148" height="12.173" transform="translate(12.173 5.013) rotate(90)" fill="#47e6b1"/>
    </g>
    <g id="Group_13" data-name="Group 13" transform="translate(13.888 488.935)" opacity="0.5">
      <rect id="Rectangle_1545" data-name="Rectangle 1545" width="2.148" height="12.173" transform="translate(5.012)" fill="#47e6b1"/>
      <rect id="Rectangle_1546" data-name="Rectangle 1546" width="2.148" height="12.173" transform="translate(12.173 5.013) rotate(90)" fill="#47e6b1"/>
    </g>
    <g id="Group_14" data-name="Group 14" transform="translate(487.578 276.313)" opacity="0.5">
      <rect id="Rectangle_1547" data-name="Rectangle 1547" width="2.148" height="12.173" transform="translate(5.012)" fill="#47e6b1"/>
      <rect id="Rectangle_1548" data-name="Rectangle 1548" width="2.148" height="12.173" transform="translate(12.173 5.013) rotate(90)" fill="#47e6b1"/>
    </g>
    <path id="Path_1043" data-name="Path 1043" d="M794.844,120.883l4.614,4.229,6.536-9.612,2.307,1.923-8.843,11.535-6.536-7.305Z" transform="translate(-240.524 -32.794)" fill="#47e6b1" opacity="0.5"/>
    <rect id="Rectangle_1549" data-name="Rectangle 1549" width="15.927" height="20.478" transform="translate(411.233 167.497) rotate(-2.221)" fill="#63c1ff"/>
    <path id="Path_1044" data-name="Path 1044" d="M673.109,403.422s-22.04-10.53-21.687-1.436,22.216,15.077,22.216,15.077Z" transform="translate(-315.844 -166.581)" fill="#ffb9b9"/>
    <path id="Path_1045" data-name="Path 1045" d="M690.646,508.093s-10.4,25.45-14.24,43.815-9.693,43.639-2.167,61.563,28.923,70.6,29.144,76.288-1.833,11.456,2.714,11.28,29.292-7.967,30.3-11.421-8.443-12.2-8.443-12.2l-23.328-73.1L728.962,556.7l17.555,71.044,3.438,88.669s16.875-5.208,19.325-.749c0,0,7.561-10.54,8.521-15.131s-3.571-92.08-3.571-92.08,15.49-99.65,2.986-99.165S715.734,479.8,690.646,508.093Z" transform="translate(-323.29 -201.89)" fill="#63c1ff"/>
    <path id="Path_1046" data-name="Path 1046" d="M712.928,772.913s-11.535,25.494-12.628,26.675-8.609,12.857-2.925,12.637,19.1-6.433,28.983-15.924,22.9-25.935,21.722-27.028-9.271-4.195-9.271-4.195Z" transform="translate(-329.641 -278.313)" fill="#575a89"/>
    <path id="Path_1047" data-name="Path 1047" d="M782.707,794.967s-.7,11.412-2.793,16.047-1.833,11.456,3.851,11.236,20.374-3.067,20.374-3.067.872-6.865-.309-7.958-6.213-13.421-4.072-16.92S782.707,794.967,782.707,794.967Z" transform="translate(-354.418 -286.214)" fill="#575a89"/>
    <path id="Path_1048" data-name="Path 1048" d="M789.5,278.6s12.117,18.885,16.841,23.255-8.565,13.994-8.565,13.994l-23.784,3.2s.3-21.643-.926-23.873S789.5,278.6,789.5,278.6Z" transform="translate(-352.857 -130.548)" fill="#ffb9b9"/>
    <path id="Path_1049" data-name="Path 1049" d="M757.141,311.046s4.9,8.918,9.447,8.742,28.067-10.2,29.072-13.651,7.791,24.745,7.791,24.745L745.9,432.162l-14.039-9.7,6.8-59.466,5.586-32.094Z" transform="translate(-341.125 -139.749)" fill="#63c1ff"/>
    <path id="Path_1050" data-name="Path 1050" d="M786.319,398.975a31.848,31.848,0,0,0-3.531,14.937c.009.227.018.455.038.682.545,10.521,4.421,22.69,5.811,31.539,1.009,6.348.722,10.981-2.993,12.07-9.006,2.626,1.313,4.5-33.531,16.1s-40.924,1.587-41.012-.687,4.935-19.546,3.754-20.638-16.523,14.3-21.158,12.205-.529-13.641-.529-13.641,10.442-24.313,10.222-30,15.818-32.491,15.818-32.491l10.909-71.01s4.194-9.271,9.834-10.628a13.971,13.971,0,0,1,10.319,1.877l-9.438,20.859-9.957,36.818,1.666,13.6s11.579-24.357,19.184-33.76,23.819-31.663,23.819-31.663,3.785-12.773.928-16.59,11.92-4.4,18.221,11.293c3.34,8.318,8.762,20.722,12.158,32.272,3.027,10.232,4.456,19.8,1.458,25.264C803.726,375.735,792.2,386.713,786.319,398.975Z" transform="translate(-329.841 -137.649)" fill="#575a89"/>
    <path id="Path_1051" data-name="Path 1051" d="M844.1,384.435c-4.583,8.352-16.112,19.33-21.989,31.592-1.535-5.531-3.408-11.253-3.408-11.253s-7.183-38.43,14.064-48.362a14.22,14.22,0,0,1,9.875,2.759C845.664,369.4,847.094,378.968,844.1,384.435Z" transform="translate(-366.216 -154.345)" opacity="0.1"/>
    <path id="Path_1052" data-name="Path 1052" d="M718.764,392.191l-18.012,5.252-25.009.97-2.573,21.731,41.1,2.96S724.536,394.244,718.764,392.191Z" transform="translate(-322.837 -164.879)" fill="#575a89"/>
    <path id="Path_1053" data-name="Path 1053" d="M770.163,494.231s-24.1,4-18.6,11.249,26.847-.372,26.847-.372Z" transform="translate(-345.992 -195.536)" fill="#ffb9b9"/>
    <path id="Path_1054" data-name="Path 1054" d="M804.989,461.5c.545,10.521,4.421,22.69,5.811,31.539-7.676,7.265-14.976,13.673-17.727,13.78-5.684.22-14.822-.564-18.189.705s-5.341-20.286-5.341-20.286,2.008-6.909,10.971-10.672C786.564,474.025,798.159,467.12,804.989,461.5Z" transform="translate(-351.946 -186.1)" opacity="0.1"/>
    <path id="Path_1055" data-name="Path 1055" d="M818.768,346.883s19.237-3.023,18.2,28.9,2.028,52.292-5.709,58.285-32.869,33.152-38.553,33.373-14.822-.564-18.189.705-5.341-20.286-5.341-20.286,2.009-6.909,10.971-10.672,30.076-17.105,29.9-21.652-5.341-20.286-5.341-20.286S797.522,356.814,818.768,346.883Z" transform="translate(-352.392 -152.256)" fill="#575a89"/>
    <circle id="Ellipse_101" data-name="Ellipse 101" cx="25.028" cy="25.028" r="25.028" transform="translate(395.023 126.488)" fill="#ffb9b9"/>
    <path id="Path_1056" data-name="Path 1056" d="M743.529,230.6a4.832,4.832,0,0,1-2.1,1.056,1.5,1.5,0,0,1-1.74-1.205,6.239,6.239,0,0,1-2.388,3.063c-1.169.609-2.977.1-3.145-1.209a5.518,5.518,0,0,1-1.27,2.681,1.9,1.9,0,0,1-2.674.089c.512,2.8.2,5.675.357,8.515s.918,5.851,3.064,7.718c3.129,2.723,7.835,2.051,11.951,1.535a3.628,3.628,0,0,1,1.873.1c1.541.657,1.471,2.8,1.492,4.477a12.44,12.44,0,0,0,10.893,11.813,6.236,6.236,0,0,0,4.635-1.131c1.169-.991,1.766-2.605,3.1-3.349,2.178-1.21,4.82.555,6.413,2.472s3.162,4.274,5.63,4.625c3.263.464,5.748-2.861,6.968-5.923A34.531,34.531,0,0,0,785.9,239.1C779.086,224.244,755.811,221.895,743.529,230.6Z" transform="translate(-340.36 -114.494)" fill="#2f2e41"/>
  </g>
</svg>
