<svg xmlns="http://www.w3.org/2000/svg" width="22.5" height="15" viewBox="0 0 22.5 15"><defs><style>.a{fill:#9592a8;}</style></defs><path class="a" d="M11.251,67.125a4.334,4.334,0,0,0-1.22.2,2.164,2.164,0,0,1,.283,1.055,2.188,2.188,0,0,1-2.188,2.188,2.164,2.164,0,0,1-1.055-.283,4.364,4.364,0,1,0,4.18-3.155Zm11.114,3.8A12.529,12.529,0,0,0,11.251,64,12.531,12.531,0,0,0,.136,70.93a1.264,1.264,0,0,0,0,1.14A12.529,12.529,0,0,0,11.251,79a12.531,12.531,0,0,0,11.114-6.93,1.264,1.264,0,0,0,0-1.14Zm-11.114,6.2A10.626,10.626,0,0,1,1.956,71.5a10.626,10.626,0,0,1,9.294-5.625A10.626,10.626,0,0,1,20.545,71.5,10.625,10.625,0,0,1,11.251,77.125Z" transform="translate(-0.001 -64)"/></svg>