<svg xmlns="http://www.w3.org/2000/svg" width="20" height="15" viewBox="0 0 20 15"><defs><style>.a{fill:#9592a8;}</style></defs><path class="a" d="M18.125,64H1.875A1.875,1.875,0,0,0,0,65.875v11.25A1.875,1.875,0,0,0,1.875,79h16.25A1.875,1.875,0,0,0,20,77.125V65.875A1.875,1.875,0,0,0,18.125,64Zm0,1.875v1.594c-.876.713-2.272,1.822-5.257,4.16-.658.517-1.961,1.761-2.868,1.746-.907.015-2.21-1.229-2.868-1.746-2.985-2.337-4.381-3.446-5.257-4.16V65.875ZM1.875,77.125v-7.25c.9.713,2.164,1.713,4.1,3.228.854.672,2.349,2.156,4.026,2.147,1.669.009,3.145-1.453,4.026-2.146,1.935-1.515,3.2-2.516,4.1-3.229v7.25Z" transform="translate(0 -64)"/></svg>