<svg xmlns="http://www.w3.org/2000/svg" width="17.5" height="20" viewBox="0 0 17.5 20"><defs><style>.a{fill:#43425d;}</style></defs><path class="a" d="M17.163,14.152C16.408,13.341,15,12.121,15,8.125a6.169,6.169,0,0,0-5-6.061V1.25a1.249,1.249,0,1,0-2.5,0v.814a6.169,6.169,0,0,0-5,6.061c0,4-1.412,5.216-2.167,6.027A1.22,1.22,0,0,0,0,15a1.251,1.251,0,0,0,1.254,1.25H16.245A1.251,1.251,0,0,0,17.5,15a1.22,1.22,0,0,0-.336-.848Zm-14.526.223c.829-1.093,1.735-2.9,1.739-6.227,0-.008,0-.015,0-.023a4.375,4.375,0,0,1,8.75,0c0,.008,0,.015,0,.023,0,3.324.911,5.135,1.739,6.227ZM8.749,20a2.5,2.5,0,0,0,2.5-2.5h-5A2.5,2.5,0,0,0,8.749,20Z" transform="translate(0.001)"/></svg>