<svg xmlns="http://www.w3.org/2000/svg" width="40" height="35" viewBox="0 0 40 35">
  <path id="icon_Menu" d="M1.429,66.429H38.571A1.429,1.429,0,0,0,40,65V61.429A1.429,1.429,0,0,0,38.571,60H1.429A1.429,1.429,0,0,0,0,61.429V65A1.429,1.429,0,0,0,1.429,66.429Zm0,14.286H21.238a1.429,1.429,0,0,0,1.429-1.429V75.714a1.429,1.429,0,0,0-1.429-1.429H1.429A1.429,1.429,0,0,0,0,75.714v3.571A1.429,1.429,0,0,0,1.429,80.714ZM1.429,95H30.667A1.429,1.429,0,0,0,32.1,93.571V90a1.429,1.429,0,0,0-1.429-1.429H1.429A1.429,1.429,0,0,0,0,90v3.571A1.429,1.429,0,0,0,1.429,95Z" transform="translate(0 -60)" fill="#fff"/>
</svg>
