<svg xmlns="http://www.w3.org/2000/svg" width="25.72" height="20.578" viewBox="0 0 25.72 20.578"><defs><style>.a{fill:#9592a8;}</style></defs><path class="a" d="M24.537,15a4.715,4.715,0,0,0,0-1.712l1.037-.6a.291.291,0,0,0,.133-.342,6.032,6.032,0,0,0-1.334-2.307.293.293,0,0,0-.362-.056l-1.037.6a4.719,4.719,0,0,0-1.483-.856v-1.2a.293.293,0,0,0-.229-.285,6.064,6.064,0,0,0-2.661,0,.293.293,0,0,0-.229.285v1.2a4.719,4.719,0,0,0-1.483.856l-1.037-.6a.294.294,0,0,0-.362.056,6.032,6.032,0,0,0-1.334,2.307.3.3,0,0,0,.133.342l1.037.6a4.715,4.715,0,0,0,0,1.712l-1.037.6a.291.291,0,0,0-.133.342,6.062,6.062,0,0,0,1.334,2.307.293.293,0,0,0,.362.056l1.037-.6a4.719,4.719,0,0,0,1.483.856v1.2a.293.293,0,0,0,.229.285,6.064,6.064,0,0,0,2.661,0,.293.293,0,0,0,.229-.285v-1.2a4.719,4.719,0,0,0,1.483-.856l1.037.6a.294.294,0,0,0,.362-.056,6.032,6.032,0,0,0,1.334-2.307.3.3,0,0,0-.133-.342Zm-4.6,1.093a1.949,1.949,0,1,1,1.949-1.949A1.951,1.951,0,0,1,19.935,16.1ZM9,10.289A5.145,5.145,0,1,0,3.858,5.145,5.144,5.144,0,0,0,9,10.289Zm8.087,9.1c-.092-.048-.185-.1-.273-.157l-.318.185a1.577,1.577,0,0,1-1.949-.293,7.329,7.329,0,0,1-1.616-2.8,1.572,1.572,0,0,1,.719-1.837l.318-.185q-.006-.157,0-.313l-.318-.185a1.57,1.57,0,0,1-.719-1.837c.036-.117.088-.233.129-.35-.153-.012-.3-.048-.458-.048h-.671a7,7,0,0,1-5.86,0H5.4a5.4,5.4,0,0,0-5.4,5.4v1.672a1.93,1.93,0,0,0,1.929,1.929H16.077a1.927,1.927,0,0,0,1.093-.342,1.565,1.565,0,0,1-.08-.474Z" transform="translate(0)"/></svg>