<svg xmlns="http://www.w3.org/2000/svg" width="11.248" height="20" viewBox="0 0 11.248 20"><defs><style>.a{fill:#9592a8;}</style></defs><path class="a" d="M8.207,9.117,3.988,7.883a1.152,1.152,0,0,1,.324-2.258H6.9a2.384,2.384,0,0,1,1.336.41A.609.609,0,0,0,9,5.957l1.359-1.328a.633.633,0,0,0-.07-.957A5.524,5.524,0,0,0,6.91,2.5V.625A.627.627,0,0,0,6.285,0H5.035A.627.627,0,0,0,4.41.625V2.5h-.1A4.28,4.28,0,0,0,.055,7.172a4.472,4.472,0,0,0,3.273,3.773l4,1.172a1.152,1.152,0,0,1-.324,2.258H4.418a2.384,2.384,0,0,1-1.336-.41.609.609,0,0,0-.762.078L.961,15.371a.633.633,0,0,0,.07.957A5.524,5.524,0,0,0,4.41,17.5v1.875A.627.627,0,0,0,5.035,20h1.25a.627.627,0,0,0,.625-.625V17.492a4.412,4.412,0,0,0,4.129-2.84A4.289,4.289,0,0,0,8.207,9.117Z" transform="translate(-0.035)"/></svg>