<svg xmlns="http://www.w3.org/2000/svg" xmlns:xlink="http://www.w3.org/1999/xlink" width="489.228" height="324.256" viewBox="0 0 489.228 324.256">
  <defs>
    <clipPath id="clip-path">
      <rect id="Rectangle_1605" data-name="Rectangle 1605" width="489.228" height="324.256" transform="translate(55.493 36.551)" fill="none"/>
    </clipPath>
  </defs>
  <g id="money_widget_background" data-name="money widget background" transform="translate(-55.493 -36.551)" clip-path="url(#clip-path)">
    <path id="Path_1291" data-name="Path 1291" d="M186.554,268.227c0-51.722-31.47-75.614-71.939-93.215l-17.26-7.429V47.324c20.934,4.824,38.581,15.587,54,30.218l23.984-28.751A144.868,144.868,0,0,0,97.355,7.833V-36H85.864V6.308c-4.551-.432-9.193-.671-13.88-.671a145.333,145.333,0,0,0-19,1.229V-36H41.492v44.9c-47.216,10.456-79.2,45.157-79.2,89.426,0,51.13,37.818,76.229,70.824,90.007l8.385,3.664V325.8c-26.361-6.167-50.846-20.946-69.63-40.526L-54.75,316.149a169.023,169.023,0,0,0,96.253,49.7V482.737c0,9.944,3.5,15.405,12.185,15.405A15.429,15.429,0,0,0,60.265,497l-1.536-8.579a9.475,9.475,0,0,1-2.526.284c-1.684,0-3.22-1.4-3.22-5.052V367.2c4.858.41,9.773.626,14.791.626a171.593,171.593,0,0,0,18.136-.944V482.737c0,9.944,3.5,15.405,12.185,15.405A15.429,15.429,0,0,0,104.671,497l-1.57-8.579a9.475,9.475,0,0,1-2.526.284c-1.684,0-3.22-1.4-3.22-5.052V365.231C153.207,355.014,186.554,315.728,186.554,268.227Zm-45.259,3.709c0,26.077-15.928,45.6-43.894,53.349V216.676c25.7,12.288,43.848,24.86,43.848,55.26ZM71.983,44.514a116.945,116.945,0,0,1,13.88.819V162.657l-20.8-8.943c-4-1.7-8.067-3.413-12.083-5.222V46.266a99.86,99.86,0,0,1,19-1.752ZM7.018,95.644c0-22.231,13.073-38.581,34.474-46.261v93.579C22.537,133.007,7.018,119.639,7.018,95.644Zm61.21,233.3a114.97,114.97,0,0,1-15.3-1.047V196.994l30.2,13.164,2.7,1.217V327.7a120.057,120.057,0,0,1-17.589,1.251Z" transform="translate(53.253 35.078)" fill="none" stroke="#000" stroke-width="1.093"/>
    <path id="Path_1292" data-name="Path 1292" d="M197.484,279.158c0-51.676-31.424-75.637-71.882-93.215l-17.316-7.429V58.254c20.934,4.824,38.581,15.587,54,30.218l23.984-28.751a144.868,144.868,0,0,0-77.981-40.959V-25.074H96.794V17.239c-4.551-.432-9.193-.671-13.88-.671a145.333,145.333,0,0,0-19,1.229v-42.87H52.422v44.9c-47.216,10.456-79.2,45.157-79.2,89.426,0,51.13,37.818,76.229,70.824,90.007l8.385,3.664v133.81C26.072,330.561,1.588,315.781-17.2,296.2l-26.623,30.878a169.023,169.023,0,0,0,96.253,49.7V493.667c0,9.944,3.5,15.405,12.185,15.405a15.43,15.43,0,0,0,6.576-1.138l-1.536-8.579a9.477,9.477,0,0,1-2.526.284c-1.684,0-3.22-1.4-3.22-5.052V378.13c4.858.41,9.773.626,14.791.626a171.593,171.593,0,0,0,18.136-.944V493.667c0,9.944,3.5,15.405,12.185,15.405a15.43,15.43,0,0,0,6.576-1.138l-1.57-8.579a9.477,9.477,0,0,1-2.526.284c-1.684,0-3.22-1.4-3.22-5.052V376.161C164.137,365.944,197.484,326.658,197.484,279.158Zm-45.259,3.709c0,26.077-15.928,45.6-43.894,53.349V227.607c25.7,12.288,43.848,24.86,43.848,55.26ZM82.914,55.444a116.946,116.946,0,0,1,13.88.819V173.587L76,164.644c-4-1.7-8.067-3.413-12.083-5.222V57.2a99.859,99.859,0,0,1,19-1.752Zm-64.965,51.13c0-22.231,13.073-38.581,34.474-46.261v93.579C33.467,143.937,17.949,130.569,17.949,106.574Zm61.21,233.3a114.965,114.965,0,0,1-15.3-1.047V207.924l30.2,13.164,2.7,1.217V338.627a120.049,120.049,0,0,1-17.589,1.251Z" transform="translate(53.7 35.525)" opacity="0.13"/>
  </g>
</svg>
