<svg xmlns="http://www.w3.org/2000/svg" width="15" height="15" viewBox="0 0 15 15"><defs><style>.a{fill:#43425d;}</style></defs><path class="a" d="M13.125,5.625V2.263A.938.938,0,0,0,12.85,1.6L11.525.275A.938.938,0,0,0,10.862,0H2.813a.938.938,0,0,0-.937.938V5.625A1.875,1.875,0,0,0,0,7.5v3.281a.469.469,0,0,0,.469.469H1.875v2.813A.938.938,0,0,0,2.813,15h9.375a.938.938,0,0,0,.938-.937V11.25h1.406A.469.469,0,0,0,15,10.781V7.5A1.875,1.875,0,0,0,13.125,5.625Zm-1.875,7.5H3.75V10.313h7.5Zm0-6.562H3.75V1.875H9.375V3.281a.469.469,0,0,0,.469.469H11.25Zm1.406,2.109a.7.7,0,1,1,.7-.7A.7.7,0,0,1,12.656,8.672Z"/></svg>