<svg xmlns="http://www.w3.org/2000/svg" width="24.99" height="15" viewBox="0 0 24.99 15"><defs><style>.a{fill:#9592a8;}</style></defs><path class="a" d="M24.369,68.986c-2.023.137-4.91,2.137-6.371,2.793a8.085,8.085,0,0,1-2.973.953c-.883,0-1.016-.633-.832-2.027.043-.312.457-3.094-1.668-2.973-.98.059-2.512.969-6.621,4.922L7.526,68.6A3.375,3.375,0,0,0,2.46,64.588L.315,66.029a.628.628,0,0,0-.191.863L.8,67.947a.621.621,0,0,0,.863.191l2.266-1.519A.872.872,0,0,1,5.2,67.678L1.366,77.271a1.248,1.248,0,0,0,1.16,1.715,1.235,1.235,0,0,0,.883-.367c1.648-1.648,6.043-5.887,8.25-7.648a4.054,4.054,0,0,0,.8,3.273,3.3,3.3,0,0,0,2.559.988,9.878,9.878,0,0,0,4-1.172c1.289-.578,3.867-2.445,5.406-2.57a.627.627,0,0,0,.594-.617V69.619A.62.62,0,0,0,24.369,68.986Z" transform="translate(-0.027 -63.986)"/></svg>