<svg xmlns="http://www.w3.org/2000/svg" xmlns:xlink="http://www.w3.org/1999/xlink" width="342.662" height="250" viewBox="0 0 342.662 250">
  <defs>
    <linearGradient id="linear-gradient" x1="0.5" y1="1" x2="0.5" gradientUnits="objectBoundingBox">
      <stop offset="0" stop-color="gray" stop-opacity="0.251"/>
      <stop offset="0.54" stop-color="gray" stop-opacity="0.122"/>
      <stop offset="1" stop-color="gray" stop-opacity="0.102"/>
    </linearGradient>
    <linearGradient id="linear-gradient-2" x1="0.501" y1="1" x2="0.501" y2="0" xlink:href="#linear-gradient"/>
    <linearGradient id="linear-gradient-3" x1="0.704" y1="1" x2="0.704" y2="0" xlink:href="#linear-gradient"/>
  </defs>
  <g id="Blob_Getting_Started_project_prep_" data-name="Blob Getting Started (project prep)" transform="translate(0.012)">
    <g id="Group_7" data-name="Group 7" transform="translate(-0.012 19.566)" opacity="0.1">
      <path id="Path_915" data-name="Path 915" d="M73.78,131.309c3.195,5.561,1.425,12.779-2.045,18.17s-8.407,9.671-12.253,14.815c-7.646,10.263-9.622,26.469.019,34.9,2.077,1.817,4.645,3.255,5.911,5.7,1.748,3.38.454,7.453-.865,11.034l-.11.294a25.133,25.133,0,0,0,16.119,32.725c7.615,2.346,14.487,6.15,19.573,12.3,4.445,5.376,7.013,12.008,9.945,18.336,5.3,11.432,12.141,22.362,21.594,30.686s21.788,13.841,34.38,13.386c28.76-1.037,49.938-31.328,78.67-32.922,2.07-.116,4.276-.038,6.008,1.1,2.443,1.61,3.192,4.771,4.219,7.519,5.441,14.546,21.822,21.25,36.491,26.344L319,335.285c14.972,5.2,30.7,10.479,46.357,8.07s30.953-15.272,30.273-31.112c-.558-13.01-11.339-24.461-9.926-37.409.977-8.947,7.677-16.463,8.8-25.394,1.168-9.295-3.912-18.22-9.76-25.538-16.827-21.065-40.807-34.949-64.211-48.342-16.485-9.436-33.055-18.91-50.8-25.689-43.751-16.67-91.838-15.952-138.446-20.5-8.015-.783-16.394-1.7-23.739-5.247C101.9,121.4,97.5,115.115,91.312,113.784c-4.714-1.015-11.686,1.081-15.8,3.371C68.008,121.359,70.075,124.858,73.78,131.309Z" transform="translate(-52.988 -113.521)" fill="#63c1ff"/>
    </g>
    <path id="Path_916" data-name="Path 916" d="M469.91,50.93H218.037a8.764,8.764,0,0,0-8.737,8.8V236.413a8.764,8.764,0,0,0,8.737,8.8H469.91a8.764,8.764,0,0,0,8.737-8.8V59.73a8.764,8.764,0,0,0-8.737-8.8Z" transform="translate(-160.448 -50.93)" fill="url(#linear-gradient)"/>
    <path id="Path_917" data-name="Path 917" d="M480.229,110.81V275.467a8.651,8.651,0,0,1-8.663,8.64H221.912a8.651,8.651,0,0,1-8.662-8.64V110.81Z" transform="translate(-163.164 -92.091)" fill="#f6f7f9"/>
    <path id="Path_918" data-name="Path 918" d="M278.3,382.3v88.426H221.89a8.728,8.728,0,0,1-8.64-8.809V382.3Z" transform="translate(-163.164 -278.393)" fill="#dde1ec"/>
    <rect id="Rectangle_1518" data-name="Rectangle 1518" width="108.417" height="3.048" transform="translate(134.841 38.878)" fill="#dde1ec"/>
    <rect id="Rectangle_1519" data-name="Rectangle 1519" width="65.387" height="3.048" transform="translate(134.78 60.683)" fill="#dde1ec"/>
    <rect id="Rectangle_1520" data-name="Rectangle 1520" width="22.023" height="3.048" transform="translate(214.863 60.683)" fill="#dde1ec"/>
    <g id="Group_8" data-name="Group 8" transform="translate(70.223 136.896)" opacity="0.1">
      <rect id="Rectangle_1521" data-name="Rectangle 1521" width="22.023" height="3.048" fill="#63c1ff"/>
    </g>
    <rect id="Rectangle_1522" data-name="Rectangle 1522" width="22.023" height="3.048" transform="translate(214.863 89.2)" fill="#dde1ec"/>
    <rect id="Rectangle_1523" data-name="Rectangle 1523" width="22.023" height="3.048" transform="translate(214.863 117.716)" fill="#dde1ec"/>
    <rect id="Rectangle_1524" data-name="Rectangle 1524" width="22.023" height="3.048" transform="translate(214.863 70.189)" fill="#dde1ec"/>
    <rect id="Rectangle_1525" data-name="Rectangle 1525" width="22.023" height="3.048" transform="translate(252.887 70.189)" fill="#dde1ec"/>
    <rect id="Rectangle_1526" data-name="Rectangle 1526" width="22.023" height="3.048" transform="translate(214.863 79.693)" fill="#dde1ec"/>
    <rect id="Rectangle_1527" data-name="Rectangle 1527" width="22.023" height="3.048" transform="translate(252.887 79.693)" fill="#dde1ec"/>
    <rect id="Rectangle_1528" data-name="Rectangle 1528" width="22.023" height="3.048" transform="translate(252.887 97.347)" fill="#dde1ec"/>
    <rect id="Rectangle_1529" data-name="Rectangle 1529" width="22.023" height="3.048" transform="translate(252.887 106.853)" fill="#dde1ec"/>
    <rect id="Rectangle_1530" data-name="Rectangle 1530" width="22.023" height="3.048" transform="translate(252.887 127.223)" fill="#dde1ec"/>
    <rect id="Rectangle_1531" data-name="Rectangle 1531" width="65.387" height="3.048" transform="translate(134.78 70.189)" fill="#dde1ec"/>
    <rect id="Rectangle_1532" data-name="Rectangle 1532" width="65.387" height="3.048" transform="translate(134.78 79.693)" fill="#dde1ec"/>
    <rect id="Rectangle_1533" data-name="Rectangle 1533" width="65.387" height="3.048" transform="translate(134.78 89.2)" fill="#dde1ec"/>
    <rect id="Rectangle_1534" data-name="Rectangle 1534" width="65.387" height="3.048" transform="translate(134.78 98.706)" fill="#dde1ec"/>
    <rect id="Rectangle_1535" data-name="Rectangle 1535" width="65.387" height="3.048" transform="translate(134.78 108.21)" fill="#dde1ec"/>
    <rect id="Rectangle_1536" data-name="Rectangle 1536" width="65.387" height="3.048" transform="translate(134.78 117.716)" fill="#dde1ec"/>
    <rect id="Rectangle_1537" data-name="Rectangle 1537" width="65.387" height="3.048" transform="translate(134.78 127.223)" fill="#dde1ec"/>
    <rect id="Rectangle_1538" data-name="Rectangle 1538" width="65.05" height="86.732" transform="translate(50.086 18.55)" fill="#63c1ff"/>
    <path id="Path_919" data-name="Path 919" d="M480.229,63.637A8.651,8.651,0,0,0,471.566,55H221.912a8.651,8.651,0,0,0-8.662,8.64v9.825H480.229Z" transform="translate(-163.164 -53.728)" fill="#e8eaf1"/>
    <ellipse id="Ellipse_87" data-name="Ellipse 87" cx="3.389" cy="3.389" rx="3.389" ry="3.389" transform="translate(57.201 7.03)" fill="#ff5252"/>
    <ellipse id="Ellipse_88" data-name="Ellipse 88" cx="3.389" cy="3.389" rx="3.389" ry="3.389" transform="translate(68.519 7.03)" fill="#ff0"/>
    <ellipse id="Ellipse_89" data-name="Ellipse 89" cx="3.389" cy="3.389" rx="3.389" ry="3.389" transform="translate(79.723 7.03)" fill="#69f0ae"/>
    <path id="Path_920" data-name="Path 920" d="M294.563,207.265a18.884,18.884,0,0,1-4.226,11.932c-.1.128-.206.253-.313.378h0a.514.514,0,0,0-.056.069,19.068,19.068,0,0,1-3.273,3l-.156.116c-.216.153-.435.313-.656.444l-.153.1-.328.2a1.663,1.663,0,0,1-.15.084,1,1,0,0,1-.128.078q-.722.422-1.488.778c-.056.031-.119.056-.178.084s-.128.063-.2.088-.2.091-.313.131a18.461,18.461,0,0,1-3.385,1.063,18.911,18.911,0,0,1-3.361.41h-.619a18.94,18.94,0,0,1-4.43-.51l-.272-.066q-.957-.25-1.876-.581c-.372-.138-.741-.288-1.1-.447-.091-.041-.178-.078-.269-.122l-.272-.122-.238-.122h0l-.25-.128-.278-.147-.313-.178-.05-.028a19.047,19.047,0,0,1-3.682-2.723c-.094-.091-.191-.178-.281-.275s-.2-.194-.291-.294a18.972,18.972,0,1,1,32.583-13.211Z" transform="translate(-192.833 -145.247)" fill="#fff"/>
    <path id="Path_921" data-name="Path 921" d="M300.63,230.45a5.416,5.416,0,0,1-.184.835.775.775,0,0,1-.041.125c0-.119-.022-.244-.028-.378h0a21.213,21.213,0,0,1,.106-4.889c.266-1.222-1.669-.85-2.96.244h0a3.4,3.4,0,0,0-.9,1.128c-.028-.038-.056-.072-.088-.109a3.407,3.407,0,0,0-2.563-1.266,8.725,8.725,0,0,1-5.449-2.388c-.063-.253-.109-.5-.147-.756a2.073,2.073,0,0,0-.034-.238,4.711,4.711,0,0,0,1.447-2.441v-.038a4.721,4.721,0,0,0,.119-1.038,3.7,3.7,0,0,0-.016-.419.511.511,0,0,0-.016-.153c-.016-.05,0-.119-.025-.175a2.066,2.066,0,0,0,.228-.119,2.62,2.62,0,0,0,1.013-1.147V217.2a4.322,4.322,0,0,0,.2-.519h0a6.273,6.273,0,0,0,.259-1.563v-.2c0-.41-.081-.922-.481-1.007-.528-.113-.913.685-1.447.6a.813.813,0,0,1-.419-.253c-.363-.359-.606-.822-.969-1.185a3.314,3.314,0,0,0-2.069-.878,7.815,7.815,0,0,0-2.276.209,3.832,3.832,0,0,0-1.175.4,1.4,1.4,0,0,0-.7.966,1.38,1.38,0,0,0,0,.266v.4a1.5,1.5,0,0,1-.022.172,1.429,1.429,0,0,1-.722.863c-.331.2-.7.335-1.016.56a2.66,2.66,0,0,0-.978,1.563,4.132,4.132,0,0,0-.109,1.06,7.007,7.007,0,0,0,.053.963,10.335,10.335,0,0,0,.894,3.1,4.951,4.951,0,0,0,.444.781h0a1.929,1.929,0,0,0,.134.172,4.718,4.718,0,0,0,1.01.853l.216.147a.625.625,0,0,0,.535.138.569.569,0,0,0,.163-.094,1.25,1.25,0,0,0,.391-.985v-.05a.309.309,0,0,1,0,.053.514.514,0,0,1,0,.072h.031a4.63,4.63,0,0,1,0,.478,1.747,1.747,0,0,1,0,.194c0,.038,0,.075,0,.109l-.05.044h0c-.1.088-.291.241-.55.444h0a16.533,16.533,0,0,1-3.514,2.091,5,5,0,0,0-2.879,3.2,11.219,11.219,0,0,1-1.366,2.96c-.15.219-.563,1.876-1.044,3.576.094.1.194.2.291.294s.188.184.281.275a19.047,19.047,0,0,0,3.682,2.723l.05.028.313.178.278.147c0-.234-.031-.45-.047-.653a3.105,3.105,0,0,0-.031-.35c.072-.119.134-.225.194-.313,0,.091.022.191.031.313h0c.034.313.069.7.106,1.138a3.226,3.226,0,0,0,.031.438c0-.153-.016-.313-.028-.438l.238.122.272.122c.088.044.175.081.269.122.359.159.728.313,1.1.447a19.236,19.236,0,0,0,1.876.581l.272.066a18.941,18.941,0,0,0,4.436.522h.619a18.912,18.912,0,0,0,3.389-.422,18.462,18.462,0,0,0,3.385-1.063q.153-.063.313-.131c.069-.028.131-.056.2-.088s.122-.053.178-.084c-.313-1.1-.481-1.8-.481-1.8l.413-1.06.05-.128.125-.328h0a.358.358,0,0,0,.034.122h0a4.98,4.98,0,0,0,1.469,2.341,1.663,1.663,0,0,0,.15-.084l.328-.2.153-.1c.225-.147.441-.291.656-.444l.156-.116a19.069,19.069,0,0,0,3.273-3l.056-.069h0c.106-.125.209-.25.313-.378Zm-2.726,1.425a.342.342,0,0,1,.028.047l-.025-.022Z" transform="translate(-204.519 -161.66)" fill="url(#linear-gradient-2)"/>
    <path id="Path_922" data-name="Path 922" d="M307.44,254.633v.025l.022.022C307.455,254.662,307.446,254.649,307.44,254.633Zm-19.119,9.378c-.031-.438-.062-.832-.091-1.169-.022-.238-.044-.45-.063-.625a.056.056,0,0,1,0-.025c0-.044,0-.084,0-.125a7.189,7.189,0,0,0-.738,1.469l.05.028.313.178.278.147.25.128a3.227,3.227,0,0,0,.031.438c-.016-.15-.022-.294-.031-.435Zm4.161-17.872h0l.016.028h0a.073.073,0,0,1,0,.022.122.122,0,0,0-.016-.041Z" transform="translate(-214 -184.986)" fill="url(#linear-gradient-3)"/>
    <path id="Path_923" data-name="Path 923" d="M303.913,235.93s-1.129,5.07,1.973,7.749-7.324,4.777-9.162,2.535S298,242.829,298,242.829s1.563-1.269,0-5.07Z" transform="translate(-219.988 -177.978)" fill="#e0a17e"/>
    <path id="Path_924" data-name="Path 924" d="M306.106,270.994a18.917,18.917,0,0,1-3.361.41h-.619a18.941,18.941,0,0,1-4.426-.516l-.272-.066q-.957-.25-1.876-.581l-.313-4.689,1.357-6.493.8-3.826.225-1.069.228.313.05.069.063.081,2.5,3.329,2.56-2.757.131-.144.7-.76.266-.284.125.966.45,3.473.835,6.405Z" transform="translate(-219.368 -190.391)" fill="#f0f1f5"/>
    <path id="Path_925" data-name="Path 925" d="M328.809,265.689c-.216.153-.435.313-.656.444l-.153.1-.328.2a1.659,1.659,0,0,1-.15.084,1,1,0,0,1-.128.078,5.027,5.027,0,0,1-1.5-2.207,3.437,3.437,0,0,1-.094-.331.312.312,0,0,1,0-.053l-.178.469-.547,1.354s.163.663.453,1.713q-.153.072-.313.131a18.463,18.463,0,0,1-3.385,1.063,18.916,18.916,0,0,1-3.36.41H318.3a31.087,31.087,0,0,1-.166-4.376l.413-7.868.209-3.97.116-2.188s.041.044.119.116.131.125.225.209h0a8.44,8.44,0,0,0,5,2.066,3.32,3.32,0,0,1,2.6,1.382,6.124,6.124,0,0,1,1.06,2.7l.094.86h0l.025.244.034.313Z" transform="translate(-235.078 -188.144)" opacity="0.1"/>
    <path id="Path_926" data-name="Path 926" d="M329.281,265.033l-.156.116c-.216.153-.435.313-.656.444l-.153.1-.328.2a5.183,5.183,0,0,1-1.619-2.257h0a.863.863,0,0,1-.038-.113c-.034-.109-.066-.225-.091-.338l-.128.335-.175.453-.4,1.044s.184.75.51,1.907c-.066.031-.128.063-.2.088s-.2.091-.313.131a18.463,18.463,0,0,1-3.385,1.063,18.917,18.917,0,0,1-3.36.41,31.1,31.1,0,0,1-.2-4.664l.4-7.624.213-4.064.1-1.916.019-.4a.624.624,0,0,0,.053.053,8.468,8.468,0,0,0,5.314,2.341,3.32,3.32,0,0,1,2.576,1.347,6.108,6.108,0,0,1,1.088,2.738l.166,1.541v.022h0l.034.313Z" transform="translate(-235.394 -187.602)" fill="#293158"/>
    <path id="Path_927" data-name="Path 927" d="M284.568,253v.191l-.05.725-.175,2.482s-.1.716-.178,2.329c-.109,2.126-.175,5.808.078,11.473l-.272-.066q-.957-.25-1.876-.581c-.372-.138-.741-.288-1.1-.447-.091-.041-.178-.078-.269-.122-.091-1.25-.2-2.016-.2-2.016a3.653,3.653,0,0,0-.213.313c-.053.084-.119.188-.188.313l-.016.028h0q-.091.156-.194.356a5.31,5.31,0,0,0-.231.51l-.313-.178-.05-.028a19.05,19.05,0,0,1-3.682-2.723c.5-1.772.938-3.554,1.094-3.783a10.867,10.867,0,0,0,1.329-2.9,4.911,4.911,0,0,1,2.813-3.126A11.41,11.41,0,0,0,284.562,253h.006Z" transform="translate(-205.908 -189.697)" opacity="0.1"/>
    <path id="Path_928" data-name="Path 928" d="M283.891,252.61a16.906,16.906,0,0,1-4,2.523,4.911,4.911,0,0,0-2.813,3.126,10.867,10.867,0,0,1-1.329,2.9c-.153.228-.591,2.013-1.094,3.789.091.094.188.184.281.275a19.048,19.048,0,0,0,3.682,2.723l.05.028a7.152,7.152,0,0,1,.688-1.325l.016-.025c.109-.163.178-.25.178-.25s.028.206.069.578.094.938.144,1.594l.272.122c.088.044.175.081.269.122.359.159.728.313,1.1.447a19.242,19.242,0,0,0,1.876.581c-.256-5.608-.2-9.3-.1-11.482.081-1.757.191-2.535.191-2.535l.4-2.282.113-.644.053-.313Z" transform="translate(-205.228 -189.395)" fill="#293158"/>
    <path id="Path_929" data-name="Path 929" d="M304.756,241.488a4.63,4.63,0,0,1-2.029-.466,9.119,9.119,0,0,0-.647-2.354l5.914-1.829a11.323,11.323,0,0,0-.122,3.439,4.633,4.633,0,0,1-3.117,1.21Z" transform="translate(-224.067 -178.606)" opacity="0.1"/>
    <ellipse id="Ellipse_90" data-name="Ellipse 90" cx="4.648" cy="4.648" rx="4.648" ry="4.648" transform="translate(76.038 53.296)" fill="#e0a17e"/>
    <g id="Group_9" data-name="Group 9" transform="translate(89.587 75.596)" opacity="0.1">
      <path id="Path_930" data-name="Path 930" d="M339.609,296.231c-.366-1.285-.569-2.129-.569-2.129l.7-1.832a3.954,3.954,0,0,0,.241.75l.016.041-.4,1.044s.184.75.51,1.907c-.066.031-.128.063-.2.088S339.709,296.19,339.609,296.231Z" transform="translate(-339.04 -292.27)"/>
    </g>
    <path id="Path_931" data-name="Path 931" d="M349.7,261.972a27.351,27.351,0,0,1,0-6.058c.422-1.973-4.93.281-3.8,2.957a23,23,0,0,0,2.254,4.226Z" transform="translate(-254.053 -191.189)" fill="#e0a17e"/>
    <path id="Path_932" data-name="Path 932" d="M351.261,276.536a19.084,19.084,0,0,1-3.273,3l-.156.116c-.216.153-.435.313-.656.444a13.212,13.212,0,0,1-1.344-1.916l-.041-.072,1.129-5.918.119.122c.05.047.116.109.194.172h.016c.585.5,1.819,1.25,2.413-.494a5.27,5.27,0,0,0,.216-.938l.116.431h0l.069.253,1.25,4.717h0Z" transform="translate(-254.086 -202.098)" opacity="0.1"/>
    <path id="Path_933" data-name="Path 933" d="M351.261,277.169a19.069,19.069,0,0,1-3.273,3l-.156.116c-.216.153-.435.313-.656.444l-.153.1a13.637,13.637,0,0,1-1.232-1.807l.041-.209,1.088-5.708s.056.066.153.156l.194.172a3.075,3.075,0,0,0,.278.213c.647.444,1.632.778,2.132-.782a5.278,5.278,0,0,0,.2-.888l.144.531Z" transform="translate(-254.086 -202.729)" fill="#293158"/>
    <path id="Path_934" data-name="Path 934" d="M351.261,277.169a19.069,19.069,0,0,1-3.273,3l-.156.116c-.216.153-.435.313-.656.444l-.153.1a13.637,13.637,0,0,1-1.232-1.807l.041-.209,1.088-5.708s.056.066.153.156l.194.172a3.075,3.075,0,0,0,.278.213c.647.444,1.632.778,2.132-.782a5.278,5.278,0,0,0,.2-.888l.144.531Z" transform="translate(-254.086 -202.729)" opacity="0.02"/>
    <path id="Path_935" data-name="Path 935" d="M289.756,294.707l-.016.025v-.047a3.428,3.428,0,0,1,.535-1.285s.209,1.391.4,3.476c-.091-.041-.178-.078-.269-.122l-.272-.122c-.047-.672-.1-1.219-.144-1.594s-.069-.578-.069-.578S289.865,294.544,289.756,294.707Z" transform="translate(-215.595 -217.45)" opacity="0.1"/>
    <path id="Path_936" data-name="Path 936" d="M297.982,219.773a1.275,1.275,0,0,1,.8-.144.91.91,0,0,1,.313.219,2.793,2.793,0,0,0,1.222.857,2.363,2.363,0,0,0,.916-.041,4.377,4.377,0,0,0,1.507-.46,3.814,3.814,0,0,0,1.447-3.195c.022-.41-.063-.938-.466-1.025-.513-.109-.888.669-1.407.585a.784.784,0,0,1-.406-.247c-.353-.353-.594-.807-.938-1.163a3.223,3.223,0,0,0-2.013-.863,7.528,7.528,0,0,0-2.216.209,3.642,3.642,0,0,0-1.141.391,1.372,1.372,0,0,0-.688.938c-.034.272.038.553-.016.822a1.382,1.382,0,0,1-.7.847,10.335,10.335,0,0,0-.988.55,2.617,2.617,0,0,0-.953,1.519,5.146,5.146,0,0,0-.05,1.822,10.091,10.091,0,0,0,.869,3.038,4.3,4.3,0,0,0,.566.938,5.255,5.255,0,0,0,1.141.938.694.694,0,0,0,.572.172.5.5,0,0,0,.159-.094,1.43,1.43,0,0,0,.313-1.447,8.133,8.133,0,0,1-.363-1.513.729.729,0,0,1,.081-.422,1.876,1.876,0,0,1,.281-.284,1.7,1.7,0,0,0,.313-.528,5.168,5.168,0,0,0,.485-1.519,2.048,2.048,0,0,0-.272-1.25A1.616,1.616,0,0,0,297.982,219.773Z" transform="translate(-217.241 -163.113)" opacity="0.1"/>
    <path id="Path_937" data-name="Path 937" d="M297.982,219.253a1.275,1.275,0,0,1,.8-.144.91.91,0,0,1,.313.219,2.793,2.793,0,0,0,1.222.857,2.363,2.363,0,0,0,.916-.041,4.376,4.376,0,0,0,1.507-.46,3.814,3.814,0,0,0,1.447-3.195c.022-.41-.063-.938-.466-1.025-.513-.109-.888.669-1.407.585a.785.785,0,0,1-.406-.247c-.353-.353-.594-.807-.938-1.163a3.223,3.223,0,0,0-2.013-.863,7.527,7.527,0,0,0-2.216.209,3.642,3.642,0,0,0-1.141.391,1.372,1.372,0,0,0-.688.938c-.034.272.038.553-.016.822a1.382,1.382,0,0,1-.7.847,10.328,10.328,0,0,0-.988.55,2.617,2.617,0,0,0-.953,1.519,5.146,5.146,0,0,0-.05,1.822,10.091,10.091,0,0,0,.869,3.038,4.3,4.3,0,0,0,.566.938,5.255,5.255,0,0,0,1.141.938.694.694,0,0,0,.572.172.5.5,0,0,0,.159-.094,1.43,1.43,0,0,0,.313-1.447,8.132,8.132,0,0,1-.363-1.513.729.729,0,0,1,.081-.422,1.876,1.876,0,0,1,.281-.284,1.7,1.7,0,0,0,.313-.528,5.168,5.168,0,0,0,.485-1.519,2.047,2.047,0,0,0-.272-1.25A1.616,1.616,0,0,0,297.982,219.253Z" transform="translate(-217.241 -162.755)" fill="#463e3b"/>
    <ellipse id="Ellipse_91" data-name="Ellipse 91" cx="7.874" cy="2.892" rx="7.874" ry="2.892" transform="translate(47.135 171.609)" fill="#cd9494"/>
    <ellipse id="Ellipse_92" data-name="Ellipse 92" cx="4.017" cy="1.475" rx="4.017" ry="1.475" transform="translate(50.993 172.701)" opacity="0.05"/>
    <path id="Path_938" data-name="Path 938" d="M202.9,606s8.678,4.82,15.749.644c0,0-.963,16.715-5.786,18.322h-6.424S200.97,613.7,202.9,606Z" transform="translate(-155.764 -432.109)" fill="#ff7361"/>
    <path id="Path_939" data-name="Path 939" d="M185.268,483.459c2.21,8.075-7.212,31.076-7.212,31.076s-19.816-15-22.026-23.076a15.156,15.156,0,0,1,29.238-8Z" transform="translate(-123.459 -340.262)" fill="#63c1ff"/>
    <path id="Path_940" data-name="Path 940" d="M185.268,483.459c2.21,8.075-7.212,31.076-7.212,31.076s-19.816-15-22.026-23.076a15.156,15.156,0,0,1,29.238-8Z" transform="translate(-123.459 -340.262)" opacity="0.1"/>
    <path id="Path_941" data-name="Path 941" d="M191.45,474.17s12.335,18.622,11.407,41.692" transform="translate(-148.179 -341.547)" fill="none" stroke="#535461" stroke-miterlimit="10" stroke-width="1"/>
    <path id="Path_942" data-name="Path 942" d="M239.062,553.547s-11.2-6.086-9.769,16.377c0,0,9.331-.335,12.642-7.946a6.6,6.6,0,0,0-2.707-8.337Z" transform="translate(-174.105 -395.575)" fill="#63c1ff"/>
    <path id="Path_943" data-name="Path 943" d="M239.523,555.32s-1.444,11.66-9.953,16.34" transform="translate(-174.382 -397.31)" fill="none" stroke="#535461" stroke-miterlimit="10" stroke-width="1"/>
    <path id="Path_944" data-name="Path 944" d="M225.627,608.553c-.313,3.845-1.66,15.786-5.7,17.134H214.17c.184.409.3.644.3.644h6.43c4.817-1.61,5.783-18.331,5.783-18.331A11.726,11.726,0,0,1,225.627,608.553Z" transform="translate(-163.796 -433.484)" opacity="0.05"/>
    <rect id="Rectangle_1539" data-name="Rectangle 1539" width="65.387" height="37.947" transform="translate(134.78 148.149)" fill="#dde1ec"/>
    <path id="Path_945" data-name="Path 945" d="M716.617,215.659a2.755,2.755,0,0,0,0-.369c-.113-1.526-1.563-2.629-3-3.217s-3.045-.875-4.317-1.766c-2.151-1.507-2.813-4.323-3.007-6.9-.059-.8-.084-1.6-.088-2.4s.05-1.691.125-2.535a42.241,42.241,0,0,0,.313-4.255,8.174,8.174,0,0,0-.75-3.892c-1.275-2.52-4.139-3.807-6.79-4.9a7.145,7.145,0,0,0-6.583-.194,53.122,53.122,0,0,1-5.355,1.769,24.23,24.23,0,0,0-3.126.416c-1.944.713-2.36,2.46-2.329,4.376v.363c-.194-.178-.394-.347-.6-.51l-.119-.094a7.214,7.214,0,0,0-.666-.478l-.113-.072a11.2,11.2,0,0,0-1.5-.816l-.078-.034q-.391-.172-.794-.313l-.05-.019a11.4,11.4,0,0,0-1.707-.45h0a11.369,11.369,0,0,0-10.166,3.195l-2.148,2.188h0c-9.763-2.188-10.2,6.293-10.2,6.293l.072-.016-.025.059a30.143,30.143,0,0,0,.841,3.176l-75.39,77-7.621,23.62,4.28-1.526,19.55-6.984,70-71.511a130.9,130.9,0,0,1,10.685,8.712s-3.376,1.785-2.126,9.963c1.529,10-.769,24.242-.769,24.242v9.209l.431-.119c-.053.313-.109.625-.163.985a52.544,52.544,0,0,0-.269,13.98c1.157,9.772,5.777,23.114,5.777,23.114a42.174,42.174,0,0,1,2.12,8.456,7.882,7.882,0,0,0,.494,2.173,17.274,17.274,0,0,1,1.35,6.524,46.277,46.277,0,0,0,2.97,16.487,44.016,44.016,0,0,1,2.892,9.691c-1.385,1.832-3.195,3.829-4.623,4.029-2.695.375-7.9.75-4.43,5.261a3.186,3.186,0,0,0,.4.428c-2.632.425-5.527,1.363-2.713,5.02,3.467,4.511,23.88,2.445,23.88,2.445s.131-2.5,0-5.258c1.432-.1,2.316-.191,2.316-.191s.578-10.9-1.926-12.217a5.284,5.284,0,0,0-1.35.331c-.269-1.507-.475-3.379-.6-4.767l.991-.075V336.936s-1.157-10.147-5.392-14.658a9.11,9.11,0,0,1-1.385-1.876c.031-1.3.034-3.126.019-5.23a4.338,4.338,0,0,1,.6-.788s2.31-2.813,10.207-20.672c4.658-10.532,3.62-16.612,1.985-19.832-.313-1.144-1.125-4.411-2.188-10.425a46.155,46.155,0,0,1,.194-15.224s5-12.967,7.318-18.228a8.562,8.562,0,0,0,.65-4.017,3.848,3.848,0,0,0,1.154-1.876l2.373-6.33a5.07,5.07,0,0,0,.463-2.126Zm-32.223-11.4a9.635,9.635,0,0,0,.86,1.144h0s-.353-.369-.938-.963C684.343,204.383,684.368,204.32,684.393,204.261Zm-11.666,12.995,6.53-6.671c2.257,2.063,4.673,4.17,6.693,5.905a19.333,19.333,0,0,1-.763,2.616,3.551,3.551,0,0,1-3.439-.191C679.52,217.712,675.406,217.356,672.727,217.256Z" transform="translate(-408.708 -142.259)" fill="url(#linear-gradient)"/>
    <path id="Path_946" data-name="Path 946" d="M870.624,210.5s-4.842,2.795-3.351,6.721c0,0,5.03,1.491,7.077,5.217s17.884,17.137,17.884,17.137l11.548-5.786s-4.017-5.364-16.724-9.109c0,0-7.5-8.031-10.1-9.519A55.6,55.6,0,0,1,870.624,210.5Z" transform="translate(-611.86 -160.505)" fill="#febdd5"/>
    <path id="Path_947" data-name="Path 947" d="M870.624,210.5s-4.842,2.795-3.351,6.721c0,0,5.03,1.491,7.077,5.217s17.884,17.137,17.884,17.137l11.548-5.786s-4.017-5.364-16.724-9.109c0,0-7.5-8.031-10.1-9.519A55.6,55.6,0,0,1,870.624,210.5Z" transform="translate(-611.86 -160.505)" opacity="0.05"/>
    <path id="Path_948" data-name="Path 948" d="M586.411,295.6l84.021-87.957a10.841,10.841,0,0,1,15.318-.35h0a10.841,10.841,0,0,1,.35,15.318l-84.009,87.97-23.051,8.44Z" transform="translate(-414.124 -156.174)" fill="#63c1ff"/>
    <path id="Path_949" data-name="Path 949" d="M681.143,205.934h0a10.841,10.841,0,0,1,.35,15.318l-84.018,87.957-17.306,6.33L579,319.215l23.051-8.44,84.031-87.926a10.841,10.841,0,0,0-.35-15.318h0a10.791,10.791,0,0,0-6.349-2.942,10.883,10.883,0,0,1,1.76,1.344Z" transform="translate(-414.096 -156.378)" fill="#fff" opacity="0.1"/>
    <path id="Path_950" data-name="Path 950" d="M533.411,445.45l15.68,14.977-18.912,6.921-4.139,1.513,2.623-8.325Z" transform="translate(-361.255 -305.895)" fill="#efc8c4"/>
    <path id="Path_951" data-name="Path 951" d="M581.635,544.63a4.61,4.61,0,0,1,1.613.647,1.837,1.837,0,0,1,.825,1.8,4.32,4.32,0,0,1-.65,1.179,3.679,3.679,0,0,0-.272,3.189L579,552.958Z" transform="translate(-414.247 -389.98)" fill="#727a9c"/>
    <path id="Path_952" data-name="Path 952" d="M960,718.779s.56,8.2,1.491,9.128-8.384,1.491-8.384,1.491l1.3-10.629Z" transform="translate(-671.06 -509.504)" fill="#ffb9b9"/>
    <path id="Path_953" data-name="Path 953" d="M960,718.779s.56,8.2,1.491,9.128-8.384,1.491-8.384,1.491l1.3-10.629Z" transform="translate(-671.06 -509.504)" opacity="0.05"/>
    <path id="Path_954" data-name="Path 954" d="M932.557,733.327s-1.3,0-5.961,2.423c0,0-3.167-.56-4.47-5.03,0,0-3.911,6.705-6.521,7.077s-7.637.744-4.286,5.217,23.1,2.423,23.1,2.423S934.98,734.631,932.557,733.327Z" transform="translate(-641.567 -517.719)" fill="#cbcdda"/>
    <path id="Path_955" data-name="Path 955" d="M932.557,733.327s-1.3,0-5.961,2.423c0,0-3.167-.56-4.47-5.03,0,0-3.911,6.705-6.521,7.077s-7.637.744-4.286,5.217,23.1,2.423,23.1,2.423S934.98,734.631,932.557,733.327Z" transform="translate(-641.567 -517.719)" opacity="0.05"/>
    <path id="Path_956" data-name="Path 956" d="M951.062,744.39l-1.3,3.539-8.568-2.423.488-3.514.119-.847.313-2.344s7.265-1.876,7.265-.938a14.454,14.454,0,0,0,.478,2.269c.313,1.144.672,2.451.938,3.31C950.953,744.018,951.062,744.39,951.062,744.39Z" transform="translate(-662.866 -522.448)" fill="#ffb9b9"/>
    <path id="Path_957" data-name="Path 957" d="M935.837,507.166a5.089,5.089,0,0,0-.016,5.183,9.026,9.026,0,0,0,1.338,1.857c4.1,4.47,5.217,14.53,5.217,14.53v16.205l-2.795.216-4.47.344-6.721-27.565s-3.911-20.119-2.048-23.658,3.539-25.705,3.539-25.705l1.547-1.6,3.67-3.8h10.628a7.14,7.14,0,0,1,2.066,2.31c1.782,2.951,3.382,9.087-1.507,20.416-7.637,17.7-9.872,20.491-9.872,20.491a4.292,4.292,0,0,0-.578.778Z" transform="translate(-652.315 -333.919)" fill="#4c4c78"/>
    <path id="Path_958" data-name="Path 958" d="M935.837,507.166a5.089,5.089,0,0,0-.016,5.183,9.026,9.026,0,0,0,1.338,1.857c4.1,4.47,5.217,14.53,5.217,14.53v16.205l-2.795.216-4.47.344-6.721-27.565s-3.911-20.119-2.048-23.658,3.539-25.705,3.539-25.705l1.547-1.6,3.67-3.8h10.628a7.14,7.14,0,0,1,2.066,2.31c1.782,2.951,3.382,9.087-1.507,20.416-7.637,17.7-9.872,20.491-9.872,20.491a4.292,4.292,0,0,0-.578.778Z" transform="translate(-652.315 -333.919)" opacity="0.05"/>
    <path id="Path_959" data-name="Path 959" d="M951.2,740.138l-8.068,1.007.313-2.345s7.265-1.876,7.265-.938a14.443,14.443,0,0,0,.491,2.276Z" transform="translate(-664.2 -522.448)" opacity="0.1"/>
    <path id="Path_960" data-name="Path 960" d="M912.385,477.129s.463,14.664.541,23.88c.016,2.085,0,3.892-.016,5.183a11.49,11.49,0,0,1-.15,2.044c-.56,1.676.56,5.4.56,5.4a53.764,53.764,0,0,1,3.354,23.1v8.2l-8.947,1.119s1.491-1.119-2.607-11.923a47.154,47.154,0,0,1-2.873-16.343,17.486,17.486,0,0,0-1.307-6.465,7.98,7.98,0,0,1-.463-2.157,42.687,42.687,0,0,0-2.048-8.384s-4.47-13.226-5.589-22.914a53.354,53.354,0,0,1,.259-13.858,34.575,34.575,0,0,1,.672-3.467s18.209-11.46,25.086-3.539a8.97,8.97,0,0,1,1.563,2.607,17.208,17.208,0,0,1,.878,2.9C923.414,473.034,912.385,477.129,912.385,477.129Z" transform="translate(-629.403 -327.649)" fill="#4c4c78"/>
    <ellipse id="Ellipse_93" data-name="Ellipse 93" cx="9.5" cy="9.5" rx="9.5" ry="9.5" transform="translate(272.922 48.498)" fill="#ffb9b9"/>
    <path id="Path_961" data-name="Path 961" d="M936.294,242.447s3.911,10.991,0,16.765,12.479,3.911,12.479,3.911l6.333-7.637s-7.453,0-7.815-13.039S936.294,242.447,936.294,242.447Z" transform="translate(-659.086 -178.465)" fill="#ffb9b9"/>
    <path id="Path_962" data-name="Path 962" d="M926.675,461.494a24.445,24.445,0,0,1-4.151,1.041c-2.32.356-5.055.372-6.655-1.041-.938-.838-3.285-.938-6.093-.672a104.455,104.455,0,0,0-15.446,3.207,34.594,34.594,0,0,1,.672-3.467s18.209-11.46,25.086-3.539h3.973a7.141,7.141,0,0,1,2.066,2.31C926.475,460.816,926.675,461.494,926.675,461.494Z" transform="translate(-630.655 -327.898)" opacity="0.1"/>
    <path id="Path_963" data-name="Path 963" d="M951.062,754.048l-1.3,3.539-8.568-2.423.488-3.514a6.026,6.026,0,0,0,3.983,3.7,30.39,30.39,0,0,1,5.127-2.244C950.953,753.676,951.062,754.048,951.062,754.048Z" transform="translate(-662.866 -532.106)" opacity="0.1"/>
    <path id="Path_964" data-name="Path 964" d="M925.41,750.607s-1.3,0-5.961,2.423c0,0-3.167-.56-4.47-5.03,0,0-3.911,6.705-6.521,7.077s-7.637.738-4.283,5.217,23.1,2.423,23.1,2.423S927.833,751.911,925.41,750.607Z" transform="translate(-636.766 -529.597)" fill="#cbcdda"/>
    <path id="Path_965" data-name="Path 965" d="M833.19,227.45s.422-8.406,9.866-6.236l-2.423,4.542Z" transform="translate(-588.808 -167.628)" fill="#ffb9b9"/>
    <path id="Path_966" data-name="Path 966" d="M877.331,253.788s-9.128-1.491-11.551-3.354c0,0-1.876,3.539-5.217,1.676s-11.176-1.676-11.176-1.676a16.864,16.864,0,0,1-7.815-11.551s-1.3-4.842-.938-6.146c0,0-4.842-5.03-7.265,1.676.938,4.658,1.676,4.286,1.491,8.009l2.979,8.2s.188,2.795,5.589,6.521a120.356,120.356,0,0,1,11.551,9.5s-3.26,1.769-2.047,9.872c1.479,9.9-.744,24.03-.744,24.03v9.128s18.628-5.4,21.795-2.607,10.8,0,10.8,0a106.068,106.068,0,0,1-2.235-10.8,47.054,47.054,0,0,1,.188-15.089s4.842-12.854,7.077-18.068-1.676-12.295-5.589-14.9-5.367-1.041-5.367-1.041S885.7,252.113,877.331,253.788Z" transform="translate(-588.751 -174.495)" fill="#febdd5"/>
    <path id="Path_967" data-name="Path 967" d="M912.992,202.634a3.3,3.3,0,0,0,.194,1.138,3.589,3.589,0,0,0,.872,1.085,10.857,10.857,0,0,1,3.11,4.87,14.823,14.823,0,0,1,.294,3.939c-.081,5.349-.313,11.122-3.607,15.318a33.406,33.406,0,0,1-4.242,4.086,1.279,1.279,0,0,0-.444.61,1.117,1.117,0,0,0,.138.738,7.97,7.97,0,0,0,3.476,3.073,4.407,4.407,0,0,0,1.994.753c1.694.056,2.813-1.735,4.355-2.438,2.244-1.025,4.761.4,6.99,1.463a24.631,24.631,0,0,0,5.045,1.76c2.385.55,5.08.685,7.087-.713a5.411,5.411,0,0,0,2.207-3.454c.163-.91.138-1.966.825-2.582.356-.313.841-.45,1.222-.731a3.785,3.785,0,0,0,1.132-1.876l2.294-6.274a5.154,5.154,0,0,0,.447-2.107c-.109-1.51-1.5-2.607-2.9-3.189a19.953,19.953,0,0,1-4.176-1.751c-2.079-1.494-2.723-4.286-2.91-6.84a32.922,32.922,0,0,1,.038-5.267c.228-2.6.735-5.367-.422-7.706-1.235-2.5-4-3.773-6.565-4.861a8.993,8.993,0,0,0-3.067-.888,8.744,8.744,0,0,0-3.3.7,51.514,51.514,0,0,1-5.18,1.754,22.961,22.961,0,0,0-3.017.413C911.389,194.966,912.992,199.824,912.992,202.634Z" transform="translate(-640.846 -146.958)" opacity="0.1"/>
    <path id="Path_968" data-name="Path 968" d="M912.985,201.417a3.3,3.3,0,0,0,.194,1.138,3.589,3.589,0,0,0,.872,1.085,10.857,10.857,0,0,1,3.11,4.87,14.823,14.823,0,0,1,.294,3.939c-.081,5.349-.313,11.122-3.607,15.318a33.407,33.407,0,0,1-4.242,4.086,1.279,1.279,0,0,0-.447.6,1.116,1.116,0,0,0,.138.738,7.97,7.97,0,0,0,3.476,3.073,4.407,4.407,0,0,0,1.994.753c1.694.056,2.813-1.735,4.354-2.438,2.245-1.025,4.761.4,6.99,1.463a24.631,24.631,0,0,0,5.045,1.76c2.385.55,5.08.685,7.087-.713a5.411,5.411,0,0,0,2.207-3.454c.163-.91.138-1.966.825-2.582.356-.313.841-.45,1.222-.731a3.785,3.785,0,0,0,1.132-1.876l2.295-6.274a5.156,5.156,0,0,0,.447-2.107c-.109-1.51-1.5-2.607-2.9-3.189a19.953,19.953,0,0,1-4.176-1.751c-2.079-1.494-2.723-4.286-2.91-6.84a32.937,32.937,0,0,1,.037-5.267c.228-2.6.735-5.367-.422-7.706-1.235-2.5-4-3.773-6.565-4.861a8.992,8.992,0,0,0-3.067-.888,8.744,8.744,0,0,0-3.3.7,51.512,51.512,0,0,1-5.18,1.754,22.958,22.958,0,0,0-3.017.413C911.382,193.758,912.985,198.607,912.985,201.417Z" transform="translate(-640.839 -146.113)" fill="#b96b6b"/>
    <path id="Path_969" data-name="Path 969" d="M897.41,386.26s1.485-.353,8.937-1.479,20.491,1.491,20.491,1.491" transform="translate(-632.772 -280.016)" opacity="0.05"/>
  </g>
</svg>
