<svg xmlns="http://www.w3.org/2000/svg" width="22.483" height="20.014" viewBox="0 0 22.483 20.014"><defs><style>.a{fill:none;}.b{fill:#9592a8;}</style></defs><g transform="translate(-0.05 0.327)"><g transform="translate(0.05 -0.327)"><path class="a" d="M58.193,194.929a4.365,4.365,0,0,1-3.155-4.232l-2.92-2.6a11.048,11.048,0,0,0-2.018,2.651,10.615,10.615,0,0,0,9.288,5.622,10.346,10.346,0,0,0,1.847-.168l-1.281-1.14A4.305,4.305,0,0,1,58.193,194.929Z" transform="translate(-48.146 -180.743)"/><path class="a" d="M251.835,117.622A10.615,10.615,0,0,0,242.547,112a10.346,10.346,0,0,0-1.847.168l1.273,1.132a4.071,4.071,0,0,1,.578-.047,4.359,4.359,0,0,1,4.369,4.447l2.9,2.573A11.048,11.048,0,0,0,251.835,117.622Z" transform="translate(-231.305 -107.615)"/><path class="b" d="M200.649,65.874a10.615,10.615,0,0,1,9.288,5.622,11.252,11.252,0,0,1-2.018,2.651l1.4,1.245a13.05,13.05,0,0,0,2.436-3.326,1.273,1.273,0,0,0,0-1.14A12.522,12.522,0,0,0,200.649,64a12.122,12.122,0,0,0-3.549.527l1.7,1.515A10.348,10.348,0,0,1,200.649,65.874Z" transform="translate(-189.407 -61.489)"/><path class="b" d="M11.292,165.718A10.619,10.619,0,0,1,2,160.1a11.252,11.252,0,0,1,2.018-2.651l-1.4-1.245a13.049,13.049,0,0,0-2.436,3.326,1.273,1.273,0,0,0,0,1.14,12.522,12.522,0,0,0,11.107,6.926,12.121,12.121,0,0,0,3.549-.527l-1.7-1.515A10.347,10.347,0,0,1,11.292,165.718Z" transform="translate(-0.05 -150.089)"/><path class="b" d="M275,144.172a4.462,4.462,0,0,0-1.222-.172,4.741,4.741,0,0,0-.578.047l4.951,4.4A4.358,4.358,0,0,0,275,144.172Z" transform="translate(-262.536 -138.365)"/><path class="b" d="M179.749,258.832a4.306,4.306,0,0,0,1.761.137l-4.915-4.369A4.362,4.362,0,0,0,179.749,258.832Z" transform="translate(-169.702 -244.647)"/><path class="b" d="M23.85,19.546,3.161,1.158A.562.562,0,0,1,3.115.365l.449-.5a.562.562,0,0,1,.793-.047L25.041,18.2a.562.562,0,0,1,.047.793l-.445.5A.566.566,0,0,1,23.85,19.546Z" transform="translate(-2.859 0.327)"/></g></g></svg>