<svg xmlns="http://www.w3.org/2000/svg" width="25.718" height="20" viewBox="0 0 25.718 20"><defs><style>.a{fill:#9592a8;}</style></defs><path class="a" d="M23.744,47.813a6.147,6.147,0,0,0,1.964-4.384c0-3.571-3.415-6.522-7.866-7.049C16.436,33.808,13.132,32,9.279,32,4.15,32-.006,35.2-.006,39.143a6.163,6.163,0,0,0,1.964,4.384A11.689,11.689,0,0,1,.275,45.978a1.033,1.033,0,0,0,.75,1.741,10.262,10.262,0,0,0,5.589-1.732,12.724,12.724,0,0,0,1.268.219c1.4,2.563,4.692,4.366,8.54,4.366a11.817,11.817,0,0,0,2.67-.3A10.286,10.286,0,0,0,24.681,52a1.033,1.033,0,0,0,.75-1.741A11.378,11.378,0,0,1,23.744,47.813ZM6.208,43.692l-.763.5a9.084,9.084,0,0,1-1.924.955c.121-.21.241-.433.357-.661l.692-1.388L3.462,42a4.093,4.093,0,0,1-1.326-2.857c0-2.71,3.272-5,7.143-5s7.143,2.29,7.143,5-3.272,5-7.143,5a9.728,9.728,0,0,1-2.187-.25l-.884-.2Zm16.031,2.594-1.1,1.089.692,1.388c.116.228.237.451.357.661a9.084,9.084,0,0,1-1.924-.955l-.763-.5-.888.205a9.728,9.728,0,0,1-2.187.25,8.307,8.307,0,0,1-5.862-2.219c4.522-.482,8-3.455,8-7.067,0-.152-.018-.3-.031-.446,2.875.647,5.031,2.536,5.031,4.732A4.093,4.093,0,0,1,22.239,46.286Z" transform="translate(0.007 -32)"/></svg>