<svg xmlns="http://www.w3.org/2000/svg" width="24.376" height="19.5" viewBox="0 0 24.376 19.5"><defs><style>.a{fill:#9592a8;}</style></defs><path class="a" d="M24.137,17.938,1.362.133A.609.609,0,0,0,.505.228L.124.7a.609.609,0,0,0,.095.857l22.775,17.8a.609.609,0,0,0,.857-.095l.381-.476a.609.609,0,0,0-.095-.857ZM11.294,5.578l5.134,4.013a4.247,4.247,0,0,0-5.134-4.013Zm1.768,8.343L7.928,9.908a4.255,4.255,0,0,0,4.25,4.107,4.3,4.3,0,0,0,.884-.094Zm-.884-9.656A10.36,10.36,0,0,1,21.24,9.749a10.875,10.875,0,0,1-1.676,2.293L21,13.166a12.709,12.709,0,0,0,2.015-2.861,1.232,1.232,0,0,0,0-1.112A12.221,12.221,0,0,0,12.178,2.437a11.758,11.758,0,0,0-3.985.716L9.961,4.535A10,10,0,0,1,12.178,4.265Zm0,10.969A10.361,10.361,0,0,1,3.116,9.749,10.872,10.872,0,0,1,4.794,7.457L3.357,6.333a12.706,12.706,0,0,0-2.014,2.86,1.232,1.232,0,0,0,0,1.112,12.215,12.215,0,0,0,10.836,6.756,11.8,11.8,0,0,0,3.985-.716L14.4,14.964A10.016,10.016,0,0,1,12.178,15.234Z" transform="translate(0.01 0.001)"/></svg>