<svg id="Blob_User_Reviews_person_" data-name="Blob User Reviews (person)" xmlns="http://www.w3.org/2000/svg" width="918.572" height="684" viewBox="0 0 918.572 684">
  <circle id="Ellipse_118" data-name="Ellipse 118" cx="328" cy="328" r="328" transform="translate(27.573)" fill="#63c1ff" opacity="0.1"/>
  <path id="Path_1197" data-name="Path 1197" d="M317.267,229.417l-6.792,54.922c8.336,16.315,17.166,34.863,25.587,54.87l15.994-82.816.808.737c-11.693-11.832-23.994-21.464-36.419-28.375Z" transform="translate(-140.713 -108)" fill="#63c1ff"/>
  <path id="Path_1198" data-name="Path 1198" d="M309.008,281.479l6.58-53.2c-13.977-7.629-28.1-11.8-41.675-11.723-.706,0-1.4.028-2.1.055C274.539,220.779,290.381,245.352,309.008,281.479Z" transform="translate(-140.713 -108)" fill="#63c1ff"/>
  <path id="Path_1199" data-name="Path 1199" d="M417.707,367.169l.732.988q-3.646-11.087-8.037-21.722l-41.247,92.4-.352-.438q1.566,6.819,2.885,13.507Z" transform="translate(-140.713 -108)" fill="#63c1ff"/>
  <path id="Path_1200" data-name="Path 1200" d="M389.777,305.766l.779.88a258.755,258.755,0,0,0-36.882-48.686l-16.3,84.394q11.711,28.181,20.183,55.018Z" transform="translate(-140.713 -108)" fill="#63c1ff"/>
  <path id="Path_1201" data-name="Path 1201" d="M207.044,301.443a216.052,216.052,0,0,0,1.147,43.531l143.857,40.4c-5.212-15.42-10.821-30.011-16.4-43.391L207.218,302.659Z" transform="translate(-140.713 -108)" fill="#63c1ff"/>
  <path id="Path_1202" data-name="Path 1202" d="M210.791,361.7l-.2-1.217,145.961,38.77q-1.779-5.718-3.642-11.307L208.526,347.4l-.188-1.218Q209.31,353.814,210.791,361.7Z" transform="translate(-140.713 -108)" fill="#63c1ff"/>
  <path id="Path_1203" data-name="Path 1203" d="M409.08,344.131l.756.94a309.017,309.017,0,0,0-18.6-37.271l-32.655,92.846q5.548,17.927,9.593,35.117Z" transform="translate(-140.713 -108)" fill="#63c1ff"/>
  <path id="Path_1204" data-name="Path 1204" d="M378.364,503.34c1.49,26.511-.44,51-5.79,73.2,11.339-16.231,55.5-83.959,55.487-154.187Z" transform="translate(-140.713 -108)" fill="#63c1ff"/>
  <path id="Path_1205" data-name="Path 1205" d="M229.085,417.935a298.929,298.929,0,0,0,20.388,34.431l-.137-1.339,127.176,49.893a371.621,371.621,0,0,0-5.573-44.188Z" transform="translate(-140.713 -108)" fill="#63c1ff"/>
  <path id="Path_1206" data-name="Path 1206" d="M307.716,282.172c-20.163-39.082-37.009-64.492-37.252-64.856l.466-.67C250.322,217.725,233.992,228.8,222.916,247Z" transform="translate(-140.713 -108)" fill="#63c1ff"/>
  <path id="Path_1207" data-name="Path 1207" d="M372.348,455.36c.262,1.384.533,2.773.779,4.149a369.21,369.21,0,0,1,4.993,39.866l49.226-80.224.694.986a146.379,146.379,0,0,0-4.973-36.609q-1.916-7.031-4.151-13.915Z" transform="translate(-140.713 -108)" fill="#63c1ff"/>
  <path id="Path_1208" data-name="Path 1208" d="M334.526,339.311c-8.339-19.774-17.071-38.1-25.313-54.224l-86.745-35.982-.109-1.192c-8.2,13.867-13.406,31.742-15.214,52.4Z" transform="translate(-140.713 -108)" fill="#63c1ff"/>
  <path id="Path_1209" data-name="Path 1209" d="M376.656,503.276,250.411,453.748c45.3,66.024,114.843,122.669,119.286,126.258C376.29,555.5,378.105,529.474,376.656,503.276Z" transform="translate(-140.713 -108)" fill="#63c1ff"/>
  <path id="Path_1210" data-name="Path 1210" d="M370.413,454.252l.044-.081a501.55,501.55,0,0,0-13.116-52.37l-146.32-38.865q2.054,10.675,5.056,21.734a179.711,179.711,0,0,0,11.671,30.564Z" transform="translate(-140.713 -108)" fill="#63c1ff"/>
  <path id="Path_1211" data-name="Path 1211" d="M563.919,460.944l-40.261,37.968c-3.985,17.883-9.015,37.8-15.29,58.58l65.14-53.583.152,1.084c-1.46-16.571-4.791-31.835-9.952-45.083Z" transform="translate(-140.713 -108)" fill="#63c1ff"/>
  <path id="Path_1212" data-name="Path 1212" d="M524.351,495.774l39-36.778c-5.9-14.791-14.116-27.007-24.621-35.61-.547-.448-1.1-.874-1.653-1.3C536.519,427.038,533.048,456.069,524.351,495.774Z" transform="translate(-140.713 -108)" fill="#63c1ff"/>
  <path id="Path_1213" data-name="Path 1213" d="M553.416,631.1l-.066,1.228q4.264-10.864,7.665-21.857l-90.7,44.859.008-.562q-3.144,6.251-6.393,12.243Z" transform="translate(-140.713 -108)" fill="#63c1ff"/>
  <path id="Path_1214" data-name="Path 1214" d="M571.068,565.995l.039,1.175a258.751,258.751,0,0,0,2.646-61.021l-66.382,54.6Q498.416,589.926,487.825,616Z" transform="translate(-140.713 -108)" fill="#63c1ff"/>
  <path id="Path_1215" data-name="Path 1215" d="M433.087,446.116a216.051,216.051,0,0,0-26.881,34.259l85.032,122.866c5.821-15.2,10.807-30.016,15.043-43.88l-73.836-112.2Z" transform="translate(-140.713 -108)" fill="#63c1ff"/>
  <path id="Path_1216" data-name="Path 1216" d="M397.539,494.915l.626-1.063,87.689,122.956q2.277-5.538,4.407-11.031L404.915,482.458l.632-1.058Q401.428,487.9,397.539,494.915Z" transform="translate(-140.713 -108)" fill="#63c1ff"/>
  <path id="Path_1217" data-name="Path 1217" d="M561.465,607.856l-.017,1.206a308.994,308.994,0,0,0,9.448-40.567l-84.369,50.68q-7.161,17.346-15.01,33.166Z" transform="translate(-140.713 -108)" fill="#63c1ff"/>
  <path id="Path_1218" data-name="Path 1218" d="M436.262,710.886c-15.762,21.368-32.868,39-51.144,52.682C404.2,758.3,481.412,734.3,526.2,680.205Z" transform="translate(-140.713 -108)" fill="#63c1ff"/>
  <path id="Path_1219" data-name="Path 1219" d="M375.762,549.9a298.917,298.917,0,0,0-6.258,39.523l.748-1.119,66.127,119.542a371.645,371.645,0,0,0,23.892-37.588Z" transform="translate(-140.713 -108)" fill="#63c1ff"/>
  <path id="Path_1220" data-name="Path 1220" d="M522.914,495.484c9.4-42.961,12.63-73.276,12.675-73.711l.786-.219c-16.559-12.313-36.2-14.2-56.338-7.248Z" transform="translate(-140.713 -108)" fill="#63c1ff"/>
  <path id="Path_1221" data-name="Path 1221" d="M462.231,670.094c-.681,1.234-1.359,2.476-2.046,3.693A369.207,369.207,0,0,1,438.6,707.675l89.082-30.39-.095,1.2a146.382,146.382,0,0,0,19.519-31.367q3.009-6.637,5.678-13.364Z" transform="translate(-140.713 -108)" fill="#63c1ff"/>
  <path id="Path_1222" data-name="Path 1222" d="M507.119,556.592c6.189-20.548,11.152-40.232,15.089-57.908l-43.86-83.041.676-.988c-15.158,5.452-30.57,15.9-45.139,30.653Z" transform="translate(-140.713 -108)" fill="#63c1ff"/>
  <path id="Path_1223" data-name="Path 1223" d="M434.988,709.747,369.345,591.079c-7.223,79.744,10.211,167.727,11.344,173.325C401.4,749.737,419.395,730.848,434.988,709.747Z" transform="translate(-140.713 -108)" fill="#63c1ff"/>
  <path id="Path_1224" data-name="Path 1224" d="M461.447,668.007l.086-.034a501.536,501.536,0,0,0,23.3-48.7l-87.9-123.258q-5.226,9.532-9.968,19.965a179.711,179.711,0,0,0-10.505,30.984Z" transform="translate(-140.713 -108)" fill="#63c1ff"/>
  <path id="Path_1225" data-name="Path 1225" d="M227.52,462.835l10.517,54.332c12.971,12.94,27.1,27.85,41.294,44.274l-10.387-83.7,1,.452c-14.778-7.638-29.454-13-43.406-15.728Z" transform="translate(-140.713 -108)" fill="#63c1ff"/>
  <path id="Path_1226" data-name="Path 1226" d="M235.758,514.9l-10.187-52.63c-15.651-2.935-30.368-2.535-43.258,1.733-.671.222-1.327.461-1.981.7C184.214,467.827,206.876,486.3,235.758,514.9Z" transform="translate(-140.713 -108)" fill="#63c1ff"/>
  <path id="Path_1227" data-name="Path 1227" d="M365.62,562.8l1,.713q-6.894-9.417-14.358-18.174L341.6,645.961l-.471-.308q3.6,6,6.919,11.954Z" transform="translate(-140.713 -108)" fill="#63c1ff"/>
  <path id="Path_1228" data-name="Path 1228" d="M320.078,513.033l1.013.6a258.755,258.755,0,0,0-50.125-34.9l10.584,85.3q19.848,23.182,36.2,46.085Z" transform="translate(-140.713 -108)" fill="#63c1ff"/>
  <path id="Path_1229" data-name="Path 1229" d="M144.958,565.4A216.051,216.051,0,0,0,159.5,606.447L308.8,600.4c-9.723-13.054-19.567-25.2-29.01-36.2l-134.293,2.3Z" transform="translate(-140.713 -108)" fill="#63c1ff"/>
  <path id="Path_1230" data-name="Path 1230" d="M167.146,621.552l-.563-1.1,150.8-8.244q-3.459-4.888-6.959-9.628l-149.849,6.07-.555-1.1Q163.3,614.51,167.146,621.552Z" transform="translate(-140.713 -108)" fill="#63c1ff"/>
  <path id="Path_1231" data-name="Path 1231" d="M350.3,543.553l1.009.66a309.017,309.017,0,0,0-29.207-29.7l-2.358,98.393q10.817,15.334,19.978,30.432Z" transform="translate(-140.713 -108)" fill="#63c1ff"/>
  <path id="Path_1232" data-name="Path 1232" d="M370.294,704.46c9.611,24.752,15.346,48.639,17.118,71.4,5.767-18.941,26.828-97,5.111-163.787Z" transform="translate(-140.713 -108)" fill="#63c1ff"/>
  <path id="Path_1233" data-name="Path 1233" d="M201.927,669.379a298.936,298.936,0,0,0,30.033,26.443l-.544-1.231,136.371,8.14a371.639,371.639,0,0,0-18.959-40.3Z" transform="translate(-140.713 -108)" fill="#63c1ff"/>
  <path id="Path_1234" data-name="Path 1234" d="M234.744,515.959c-31.256-30.936-55.131-49.894-55.475-50.165l.236-.781c-19.265,7.395-31.373,22.975-36.281,43.706Z" transform="translate(-140.713 -108)" fill="#63c1ff"/>
  <path id="Path_1235" data-name="Path 1235" d="M349.742,660.688c.677,1.236,1.364,2.473,2.023,3.705a369.221,369.221,0,0,1,17.071,36.37l22.019-91.511.965.724A146.379,146.379,0,0,0,375.775,576.7q-4-6.094-8.248-11.95Z" transform="translate(-140.713 -108)" fill="#63c1ff"/>
  <path id="Path_1236" data-name="Path 1236" d="M277.9,562.013c-14.043-16.228-28.012-30.957-40.834-43.744l-93.62-7.408-.472-1.1c-3.51,15.722-2.938,34.331,1.727,54.536Z" transform="translate(-140.713 -108)" fill="#63c1ff"/>
  <path id="Path_1237" data-name="Path 1237" d="M368.65,704.927l-135.373-8.081c63.488,48.789,147.136,81.164,152.471,83.2C384.445,754.707,378.126,729.393,368.65,704.927Z" transform="translate(-140.713 -108)" fill="#63c1ff"/>
  <path id="Path_1238" data-name="Path 1238" d="M347.559,660.233l.017-.091a501.541,501.541,0,0,0-28.661-45.751l-151.167,8.265q5.253,9.517,11.527,19.107a179.709,179.709,0,0,0,20.546,25.46Z" transform="translate(-140.713 -108)" fill="#63c1ff"/>
  <path id="Path_1239" data-name="Path 1239" d="M242.287,792s212-84,468,0" transform="translate(-140.713 -108)" fill="#2f2e41"/>
  <path id="Path_1240" data-name="Path 1240" d="M396.417,727.553a66.761,66.761,0,0,0,.832,6.706s18.243,12.405,19.7-1.459c.949-9.034-1.2-13.113-2.817-14.857l-.026-.028a5.618,5.618,0,0,1-1.536-3.8V697.772L396.52,702.88l.73,13.865C396.169,719.628,396.155,723.933,396.417,727.553Z" transform="translate(-140.713 -108)" fill="#ffb9b9"/>
  <path id="Path_1241" data-name="Path 1241" d="M396.417,727.553a66.761,66.761,0,0,0,.832,6.706s18.243,12.405,19.7-1.459c.949-9.034-1.2-13.113-2.817-14.857a4.359,4.359,0,0,0-4.481-.467c-2.919-1.3-6.13.868-8.786,3.671a25.8,25.8,0,0,0-4.451,6.407Z" transform="translate(-140.713 -108)" opacity="0.05"/>
  <path id="Path_1242" data-name="Path 1242" d="M409.655,718.935s8.027-4.378,9.487,15.324,2.189,17.514,2.189,17.514,7.3,17.514-8.027,15.324-22.622-3.649-21.892-12.405c.44-5.278,1.675-12.942,2.587-18.2a26.757,26.757,0,0,1,6.868-13.891C403.529,719.8,406.736,717.637,409.655,718.935Z" transform="translate(-140.713 -108)" fill="#2f2e41"/>
  <path id="Path_1243" data-name="Path 1243" d="M495.384,743.982l8.366,4.035s26.136,4.012,17.846-10.871a60.39,60.39,0,0,1-5.451-14.081,93.8,93.8,0,0,1-2.894-20.879l-22.111,3.085c7.21,9.6,6.3,25.179,5.181,33.337C495.869,741.9,495.384,743.982,495.384,743.982Z" transform="translate(-140.713 -108)" fill="#ffb9b9"/>
  <path id="Path_1244" data-name="Path 1244" d="M495.384,743.982l8.366,4.035s26.136,4.012,17.846-10.871a60.39,60.39,0,0,1-5.451-14.081c-5.077.977-8.94,8.286-8.94,8.286-4.095,14.215-7.778,10.662-10.884,7.256C495.869,741.9,495.384,743.982,495.384,743.982Z" transform="translate(-140.713 -108)" opacity="0.05"/>
  <path id="Path_1245" data-name="Path 1245" d="M507.686,732.729s6.517-12.325,13.746-7.12,3.642,12.641,27.055,19.923,7.94,22.734-6.385,21.554-44.868-6.745-44.868-6.745-7.94-22.734-4.255-23.249S501.749,753.353,507.686,732.729Z" transform="translate(-140.713 -108)" fill="#2f2e41"/>
  <path id="Path_1246" data-name="Path 1246" d="M541.138,764.331c9.3.766,19.08-5.478,18.393-11.946,4.445,7.3-6.806,15.577-17.43,14.7-14.326-1.18-44.868-6.745-44.868-6.745s-.374-1.07-.92-2.748C497.2,757.755,527.027,763.168,541.138,764.331Z" transform="translate(-140.713 -108)" fill="#fff" opacity="0.3"/>
  <path id="Path_1247" data-name="Path 1247" d="M391.449,754.272c.841,6.565,8.123,7.945,21.854,9.906,6.983,1,9.262-2.1,9.682-5.762.456,4.692-.876,9.938-9.682,8.68-15.324-2.189-22.622-3.649-21.892-12.405C391.423,754.555,391.437,754.411,391.449,754.272Z" transform="translate(-140.713 -108)" fill="#fff" opacity="0.3"/>
  <path id="Path_1248" data-name="Path 1248" d="M358.071,469.44l-2.422,36.335s-1.938,36.82,13.081,39.727,0-46.994,0-46.994V465.564Z" transform="translate(-140.713 -108)" fill="#fbbebe"/>
  <path id="Path_1249" data-name="Path 1249" d="M370.667,337.18l-1.938,4.36s.484,30.522,0,32.944-6.783,21.317-6.783,23.255-4.845,58.137-5.814,61.528-5.329,14.05-1.453,15.5,11.143-4.36,14.05,0,5.329,0,5.329-1.453.969-29.068,6.783-36.82,11.143-25.193,12.112-28.584,2.422-52.323,2.907-53.292-1.938-14.05-1.938-14.05Z" transform="translate(-140.713 -108)" fill="#3f3d56"/>
  <path id="Path_1250" data-name="Path 1250" d="M398.282,388.534s-5.814,22.77-9.689,27.13-23.255,36.82-17.441,79.938,15.987,99.316,15.987,99.316,1.453,19.863-.484,25.193,8.72,90.112,8.72,90.112,15.019,11.627,23.255-2.907c0,0-1.938-31.491,0-34.4s0-55.23,0-55.23,1.453-130.323,9.2-124.993,31.491,95.925,31.491,95.925,10.174,34.882,9.689,37.789,8.72,39.242,8.72,39.242,8.72,50.385,12.112,51.354,24.223,1.453,26.161-3.876l-5.814-45.54s-5.814-51.838-8.72-59.105-7.752-110.459-21.8-140.981c0,0-5.329-48.931-9.2-56.2,0,0-2.274-9.984.532-19.3C471,392,403.611,392.409,398.282,388.534Z" transform="translate(-140.713 -108)" fill="#2f2e41"/>
  <ellipse id="Ellipse_119" data-name="Ellipse 119" cx="40.695" cy="51.596" rx="40.695" ry="51.596" transform="translate(245.699 86.503)" fill="#2f2e41"/>
  <path id="Path_1251" data-name="Path 1251" d="M510.679,306.658l-6.3,13.565-74.608,21.8s-51.838,15.019-57.168-9.2,20.348-26.646,20.348-26.646,9.689-6.783,21.8-13.565c4.05-2.272,5.392-5.949,5.382-9.84a20.357,20.357,0,0,0-.325-3.449,29.184,29.184,0,0,0-.969-3.885,44.53,44.53,0,0,0-4.089-8.987s31.975-12.6,31.491-5.814a19.282,19.282,0,0,0,.775,7.248,28.53,28.53,0,0,0,2.66,5.877c.543.935,1.148,1.9,1.822,2.931.872,1.332,1.865,2.752,2.98,4.292,6.3,8.72,27.13,8.72,27.13,8.72C498.083,287.764,510.679,306.658,510.679,306.658Z" transform="translate(-140.713 -108)" fill="#fbbebe"/>
  <path id="Path_1252" data-name="Path 1252" d="M587.71,384.173s34.882,25.677,41.664,25.193,46.509-2.907,37.3,6.3-50.869,3.391-50.869,3.391l-38.273-24.223Z" transform="translate(-140.713 -108)" fill="#fbbebe"/>
  <path id="Path_1253" data-name="Path 1253" d="M447.02,267.881a27.633,27.633,0,0,1-28.177,7.553,44.532,44.532,0,0,0-4.089-8.987s31.975-12.6,31.491-5.814a19.282,19.282,0,0,0,.775,7.248Z" transform="translate(-140.713 -108)" opacity="0.1"/>
  <circle id="Ellipse_120" data-name="Ellipse 120" cx="27.615" cy="27.615" r="27.615" transform="translate(258.537 110)" fill="#fbbebe"/>
  <path id="Path_1254" data-name="Path 1254" d="M392.468,326.037s120.149-27.13,120.633-23.255,5.329,11.627,5.329,11.627l-28.1,31.975s3.391,15.5-3.391,18.894-7.752,29.068-14.05,29.553-79.938-.484-80.422-4.36,1.938-6.3,0-7.267-4.845-.969-2.422-5.814,2.422-25.193,2.422-25.193L369.7,341.54s-3.123-9.027,2.557-10.57S392.468,326.037,392.468,326.037Z" transform="translate(-140.713 -108)" fill="#3f3d56"/>
  <path id="Path_1255" data-name="Path 1255" d="M514.07,313.441h4.36s13.081,8.72,16.472,16.472,15.5,17.925,18.41,20.832,42.633,30.522,42.149,34.4-11.627,7.752-12.112,12.112,4.845,6.3,1.453,6.3-24.224-12.112-31.975-16.472-23.739-16.957-25.677-20.348-15.019-9.2-16.472-11.627-24.224-13.565-24.224-13.565Z" transform="translate(-140.713 -108)" fill="#3f3d56"/>
  <circle id="Ellipse_121" data-name="Ellipse 121" cx="15.503" cy="15.503" r="15.503" transform="translate(230.196 91.348)" fill="#2f2e41"/>
  <circle id="Ellipse_122" data-name="Ellipse 122" cx="15.503" cy="15.503" r="15.503" transform="translate(298.506 71)" fill="#2f2e41"/>
  <ellipse id="Ellipse_123" data-name="Ellipse 123" cx="28.826" cy="17.683" rx="28.826" ry="17.683" transform="translate(261.202 102.006)" fill="#2f2e41"/>
  <path id="Path_1256" data-name="Path 1256" d="M449.679,273.758c-13.284,5.227-23.783,5.848-29.868,5.562a20.363,20.363,0,0,1,.325,3.449c.707.029,1.468.044,2.277.044,6.72,0,16.758-1.168,29.088-6.124Z" transform="translate(-140.713 -108)" fill="#2f2e41"/>
  <rect id="Rectangle_1568" data-name="Rectangle 1568" width="421" height="252" rx="21.433" transform="translate(497.573 310)" fill="#3f3d56"/>
  <rect id="Rectangle_1569" data-name="Rectangle 1569" width="330" height="12" transform="translate(542.966 486.75)" fill="#63c1ff" opacity="0.3"/>
  <rect id="Rectangle_1570" data-name="Rectangle 1570" width="330" height="12" transform="translate(543.18 455.25)" fill="#63c1ff" opacity="0.3"/>
  <rect id="Rectangle_1571" data-name="Rectangle 1571" width="59" height="12" transform="translate(814.18 412.25)" fill="#63c1ff" opacity="0.3"/>
  <rect id="Rectangle_1572" data-name="Rectangle 1572" width="216" height="12" transform="translate(657.18 380.25)" fill="#63c1ff" opacity="0.3"/>
  <rect id="Rectangle_1573" data-name="Rectangle 1573" width="165.213" height="12" transform="translate(542.966 518.75)" fill="#63c1ff" opacity="0.3"/>
  <rect id="Rectangle_1574" data-name="Rectangle 1574" width="83" height="83" rx="10.165" transform="translate(543.18 341.25)" fill="#63c1ff"/>
</svg>
