<svg xmlns="http://www.w3.org/2000/svg" xmlns:xlink="http://www.w3.org/1999/xlink" width="1920" height="1080" viewBox="0 0 1920 1080">
  <defs>
    <linearGradient id="linear-gradient" x1="0.004" y1="1.009" x2="0.992" y2="-0.005" gradientUnits="objectBoundingBox">
      <stop offset="0" stop-color="#63c1ff"/>
      <stop offset="1" stop-color="#9519e8"/>
    </linearGradient>
    <radialGradient id="radial-gradient" cx="901.815" cy="626.667" r="3248.853" gradientTransform="translate(394.544 408.117) scale(0.563 0.349)" gradientUnits="userSpaceOnUse">
      <stop offset="0" stop-color="#63c1ff" stop-opacity="0.102"/>
      <stop offset="0.08" stop-color="#61bdff" stop-opacity="0.122"/>
      <stop offset="0.18" stop-color="#5bb0fe" stop-opacity="0.18"/>
      <stop offset="0.29" stop-color="#529bfe" stop-opacity="0.278"/>
      <stop offset="0.4" stop-color="#457efd" stop-opacity="0.412"/>
      <stop offset="0.52" stop-color="#3458fb" stop-opacity="0.588"/>
      <stop offset="0.64" stop-color="#1f2afa" stop-opacity="0.8"/>
      <stop offset="0.73" stop-color="#0c00f8"/>
      <stop offset="1" stop-color="#0c00f8" stop-opacity="0"/>
    </radialGradient>
    <linearGradient id="linear-gradient-2" x1="0.891" y1="-0.194" x2="0.109" y2="1.194" gradientUnits="objectBoundingBox">
      <stop offset="0" stop-color="#fff" stop-opacity="0"/>
      <stop offset="1" stop-color="#9519e8" stop-opacity="0.2"/>
    </linearGradient>
    <linearGradient id="linear-gradient-3" x1="0.109" y1="1.194" x2="0.891" y2="-0.194" gradientUnits="objectBoundingBox">
      <stop offset="0" stop-color="#fff" stop-opacity="0"/>
      <stop offset="1" stop-color="#63c1ff" stop-opacity="0.2"/>
    </linearGradient>
    <clipPath id="clip-path">
      <rect id="Rectangle_1597" data-name="Rectangle 1597" width="1919" height="1079" transform="translate(135.35 155.96)" fill="none"/>
    </clipPath>
  </defs>
  <g id="dashboard_background" data-name="dashboard background" transform="translate(-134.35 -154.96)">
    <rect id="Rectangle_1594" data-name="Rectangle 1594" width="1920" height="1080" transform="translate(2054.35 1234.96) rotate(180)" fill="#f2f2f2"/>
    <g id="Layer_4" data-name="Layer 4" transform="translate(-1940 -1)" opacity="0.59">
      <g id="Gradients">
        <rect id="Rectangle_1619" data-name="Rectangle 1619" width="1920" height="1080" transform="translate(2074.35 155.96)" fill="#fff"/>
        <rect id="Rectangle_1620" data-name="Rectangle 1620" width="1920" height="1080" transform="translate(2074.35 155.96)" opacity="0.41" fill="url(#linear-gradient)"/>
        <rect id="Rectangle_1621" data-name="Rectangle 1621" width="1920" height="1080" transform="translate(2074.35 155.96)" opacity="0.29" fill="url(#radial-gradient)"/>
      </g>
    </g>
    <rect id="Rectangle_1595" data-name="Rectangle 1595" width="1920" height="1080" transform="translate(134.35 154.96)" fill="url(#linear-gradient-2)"/>
    <rect id="Rectangle_1596" data-name="Rectangle 1596" width="1920" height="1080" transform="translate(134.35 154.96)" fill="url(#linear-gradient-3)"/>
    <g id="Group_51" data-name="Group 51" clip-path="url(#clip-path)">
      <g id="Group_49" data-name="Group 49" opacity="0.08">
        <path id="Path_1267" data-name="Path 1267" d="M-86.45,1143.84c-1.09-27.57,19.49-51.46,42.31-67s49.13-26,69.91-44.11,35.32-48,24.52-73.4c-6-14.16-19-24.88-23.11-39.72-7-25.42,14.42-49.13,21.27-74.59,7.62-28.32-3.42-58.52-19.19-83.26S-7,715.5-21.55,690s-22.54-57.23-10.83-84.12C-61.28,650.11-68.75,704.62-71,757.39c-4.72,112.63-5.21,225.48.22,338.08,1,21.05,1.83,43.72-9.69,61.37C-83.27,1153.93-83.62,1146.75-86.45,1143.84Z" transform="translate(134.35 154.96)" fill="#63c1ff"/>
        <path id="Path_1268" data-name="Path 1268" d="M175.19,1117.3c-1.39-34.32,28-64.08,61-73.62s68.42-3.13,101.55,5.94,66.06,20.85,100.39,22c109,3.73,195.43-97.07,303.23-113.72,92.27-14.25,181.38,35.07,273.54,50,173.7,28.12,348.86-67.08,523.25-43.66,159.28,21.39,300.35,139.78,460.74,129.59-61.69,11.45-125.11,34.14-187.68,38.85-299.55,22.54-600.29-32.83-900.35-18.7C664.73,1125.59,414.18,1177.21,175.19,1117.3Z" transform="translate(134.35 154.96)" fill="#63c1ff"/>
        <path id="Path_1269" data-name="Path 1269" d="M1509.85,108a22.881,22.881,0,0,1,9.42,9.5c4.68,8.52,4.95,18.12,5.19,27.52.28,11.07.14,23.34-7.3,31.54-4,4.44-9.66,7-15.17,9.37-21.8,9.34-42.66,13.39-61.17-3.93-12.54-11.74-22.11-26.95-19.15-44.54,2.4-14.25,15.2-45.31,32.65-41.08,9.68,2.35,13.09,10.84,24.83,11.3C1489.56,108.07,1499.51,102.67,1509.85,108Z" transform="translate(134.35 154.96)" fill="#63c1ff"/>
        <path id="Path_1270" data-name="Path 1270" d="M1197.71,262.78c-2.55-9.54,5.78-19.23,15.3-21.87s19.62-.18,29.18,2.27l58.12,14.88c12.85,3.29,27.1,7.63,33.43,19.29,24.06,44.29-73.3,89.06-108.1,80.68-19.92-4.8-25.34-12-21.38-32.37,2.61-13.41,18.38-20.34,15.44-35.62C1217.39,278,1200.88,274.66,1197.71,262.78Z" transform="translate(134.35 154.96)" fill="#63c1ff"/>
        <path id="Path_1271" data-name="Path 1271" d="M1814.2,806.23c-5.2,10.71-4.42,23.23-6.55,34.94-4.63,25.39-24.5,47.38-49.3,54.56-11.14,3.22-24.77,4.87-30,15.21-3.61,7.09-1.62,15.61.44,23.29,6.4,23.88,15.59,51,38.67,59.89,14.73,5.67,32.36,1.61,44.1-8.94s17.64-26.83,16.82-42.59c-.53-10.16-3.55-20.83.44-30.19,4.92-11.53,18.37-16.41,30.49-19.59,15.62-4.11,34.8-11.1,36.16-27.2.72-8.57-4.34-16.48-9.57-23.3C1873.86,826.65,1832.08,769.39,1814.2,806.23Z" transform="translate(134.35 154.96)" fill="#63c1ff"/>
        <path id="Path_1272" data-name="Path 1272" d="M1020.91,233.72c7.92-5,12-14.11,16.74-22.2s11.68-16.28,21-16.88,17.64,7,22.16,15.36c12,22.23,5.31,51.89-13,69.31-19.13,18.21-51.93,25.27-76.81,15.62-17.18-6.67-31.43-29.23-17-45.47C986.33,235.66,1006.53,242.82,1020.91,233.72Z" transform="translate(134.35 154.96)" fill="#63c1ff"/>
        <path id="Path_1273" data-name="Path 1273" d="M516,387.65c27.71-24.32,48.83-58.58,53.83-95.48,5-37.14-17.69-72.71-5.36-109.44,8.61-25.67,32.35-42.94,55.72-56.62s48.65-26.32,64.58-48.21A84.7,84.7,0,0,0,695.73.48c-8.39-23-26.41-41.15-44.88-57.29A601.788,601.788,0,0,0,540-133.61c-28.69-15.43-70.26-34.1-99.85-9.23-13.3,11.17-19.21,28.82-22.34,45.9C412-65.21,411.3-23.48,425.42,6.45c15,31.7,33,58.22,35.29,95.29,1.85,30.21-9.29,63.11-35.06,79-20.27,12.48-45.47,12.51-69.23,14.1-45.83,3.05-92.09,13.71-130.8,38.42-33.17,21.17-65.39,57.14-72.38,97.18-6.87,39.35,16.84,96.93,45.18,124.25,25.06,24.16,61.49,34.46,96.21,32,40.7-2.94,70.61-25.25,107.14-39C442.56,432.36,482.8,416.82,516,387.65Z" transform="translate(134.35 154.96)" fill="#63c1ff"/>
        <path id="Path_1274" data-name="Path 1274" d="M640.73,213.93c-29.65,22.06-8.14,48.7-8.07,78.75.08,30.65-9.43,61.42-27.59,86.19C585.43,405.66,557,425.06,537.63,452a141.05,141.05,0,0,0-26.28,81.39c0,16.81,3.92,35.22,17.21,45.51,13.51,10.45,32.53,9.45,49.24,5.94,43.64-9.16,78.65-31,109.19-62.33,26.24-26.87,79.75-27.43,108.78-3.3,18.11,15.05,27,38.18,40,57.79,16.33,24.55,40.64,44.42,69.09,52.14s61,2.2,83.19-17.17c19.84-17.28,30-43.55,33.24-69.66,3.65-29-.81-60.07-18.08-83.64-25.76-35.15-72.62-46-115.43-54.18S798.12,386,771.71,351.35c-18.71-24.57-23.23-59.22-11.43-87.76,5.84-14.13,15.24-30.65,6.55-43.24-4.51-6.53-12.62-9.39-20.28-11.44A215.189,215.189,0,0,0,685,201.75C669.47,202.2,653.21,204.64,640.73,213.93Z" transform="translate(134.35 154.96)" fill="#63c1ff"/>
        <path id="Path_1275" data-name="Path 1275" d="M309.69-45.58C328-21.43,346.46,3.69,354.38,33s3.05,64-19.7,84c-17.92,15.79-43,19.77-66.58,23.6-46.46,7.5-93.55,17.22-134.5,40.4S58.18,243.2,51.2,289.76c-3.54,23.59,0,47.59.8,71.43s-1.81,49.11-15.75,68.47c-13,18.06-34,28.37-54.41,37.27-22.88,10-50.15,18.9-71.74,6.38-19.25-11.17-26.29-35.19-30.1-57.11A470.62,470.62,0,0,1-98.22,174.92C-120.09,98-80.49,7.18-15.81-39.85,30-73.15,88.49-85.24,145.1-84.19S257.32-69.92,312.4-56.77C310.61-56,311.48-46.33,309.69-45.58Z" transform="translate(134.35 154.96)" fill="#63c1ff"/>
        <path id="Path_1276" data-name="Path 1276" d="M220.75,863.32c13.22-4.18,27-9.3,40.58-6.59,12,2.39,22.52,10.73,34.75,11.74a29.86,29.86,0,0,0,26.11-48c-9.51-12.36-26.73-15.34-42.3-16.17-27.36-1.47-82-4.47-106,13-10.77,7.86-12.79,21.07-7,33.2C177,872.06,201.71,869.35,220.75,863.32Z" transform="translate(134.35 154.96)" fill="#63c1ff"/>
        <path id="Path_1277" data-name="Path 1277" d="M751.73,681.55c-8.74-5.29-21.18-5.44-26.63-14.08-3.78-6-2.47-14,.71-20.31s8-11.69,11.49-17.86c3.3-5.85,5.15-13.66,1-19-4.75-6.1-14.94-4.9-20.59.37s-7.95,13.12-10,20.55-4.49,15.28-10.27,20.42c-11.11,9.89-31.58,7.06-38.74,20.1-3.91,7.13-1.59,16.43,3.63,22.66,10.19,12.18,27.43,15,41.2,21.25,9.47,4.3,18.09,11.58,28.81,12.16C757,729.2,776.69,696.64,751.73,681.55Z" transform="translate(134.35 154.96)" fill="#63c1ff"/>
        <path id="Path_1278" data-name="Path 1278" d="M823.51,875.43c-6.91,1.12-11.67,9.27-9.34,15.87s11,10,17.25,6.77,8.54-12.15,4.75-18-12.77-7.51-18.44-3.41" transform="translate(134.35 154.96)" fill="#63c1ff"/>
        <path id="Path_1279" data-name="Path 1279" d="M888,37.47c9.94-.18,17.53,12.44,12.72,21.14s-19.53,9-24.66.46,2-21.4,11.92-21.59" transform="translate(134.35 154.96)" fill="#63c1ff"/>
        <path id="Path_1280" data-name="Path 1280" d="M581.51,824.43c-6.91,1.12-11.67,9.27-9.34,15.87s11,10,17.25,6.77,8.54-12.15,4.75-18-12.77-7.51-18.44-3.41" transform="translate(134.35 154.96)" fill="#63c1ff"/>
      </g>
      <g id="Group_50" data-name="Group 50" opacity="0.02">
        <path id="Path_1281" data-name="Path 1281" d="M2615.41,30.35C2504.77,77,2411.81,156.5,2310.69,221.24s-220,116.45-338.41,96.8c-104.65-17.36-191.7-87.14-275.54-152.13S1520.36,35.79,1414.4,30.63C1326.72,26.36,1243.2,64,1162,97.37c-41.19,17-92.25,31.82-127,3.89-37.35-30-29.81-87.92-18.76-134.56C1547.4-19.3,2085.1-1.92,2615.41,30.35Z" transform="translate(134.35 154.96)" fill="#9519e8"/>
        <path id="Path_1282" data-name="Path 1282" d="M1927.69,1241.31c-285.34-26.82-541.72-224.1-828.08-212.16-128.85,5.38-263.61,52.66-382.47,2.63-90.61-38.14-151.88-126.09-240.21-169.24-91.51-44.71-199.35-35.7-300-19.84C116.07,852.3,49.32,863-3.72,831.57c-65-38.58-82.2-123.34-93-198.17-25.82,214.45-38.85,435.51-37.48,651.5q1047-68.94,2097.3-54.13C1947.52,1236.2,1944.07,1242.85,1927.69,1241.31Z" transform="translate(134.35 154.96)" fill="#9519e8"/>
        <path id="Path_1283" data-name="Path 1283" d="M1203.51,604.8c44-20.65,65.51-70.29,80.26-116.61s28.43-96.63,65.76-127.76c33-27.51,81.31-34.38,121.38-18.93s70.85,52,81.24,93.62c3.23,13,5.1,27.28,14.56,36.71,12.77,12.74,33.51,11.13,51.39,8.76,49.57-6.57,102.8-11.56,147,11.73,66,34.76,87.43,128.26,53.2,194.55s-112.29,102.91-186.85,100.37c-83.63-2.85-169.84-47.63-247.23-15.77C1305.17,804,1274.13,901.81,1203.45,950c-106.23,72.46-134.21-62.52-136.42-142.09-1-36.54,4.85-76.85,14.84-111.89C1101.2,628.23,1148.71,630.53,1203.51,604.8Z" transform="translate(134.35 154.96)" fill="#9519e8"/>
        <path id="Path_1284" data-name="Path 1284" d="M266.35,514.22c-19.84-10.43-44.68,3.21-66.31-2.68-13-3.52-23-13.58-31.91-23.61s-17.8-20.77-29.94-26.5-28.72-4.72-36.61,6.15c-7.23,10-4.39,24.68,3.6,34S125.05,516,136.8,519.71s24,6.36,34.7,12.38c23.45,13.14,47.15,41.05,76.5,40.91C279.07,572.78,296.72,530.18,266.35,514.22Z" transform="translate(134.35 154.96)" fill="#9519e8"/>
        <path id="Path_1285" data-name="Path 1285" d="M87.44,7.44c-.28,11.35,5.7,22.63,3.16,33.7S77.76,59.64,68.74,66.71s-18.21,16.7-17.06,28.1c1.06,10.5,11.5,18.45,22,18.88s20.6-5.35,27.64-13.2S112.9,82.87,117,73.15c3.21-7.6,6.4-15.51,12.33-21.25,13.66-13.21,38-11.38,49.74-26.33,10.53-13.42,4-35.25-10.72-43.89C145.71-31.62,88.3-27.59,87.44,7.44Z" transform="translate(134.35 154.96)" fill="#9519e8"/>
        <path id="Path_1286" data-name="Path 1286" d="M874,790.47c9.94-.18,17.53,12.44,12.72,21.14s-19.53,9-24.66.46,2-21.4,11.92-21.59" transform="translate(134.35 154.96)" fill="#9519e8"/>
        <path id="Path_1287" data-name="Path 1287" d="M738,124.47c9.94-.18,17.53,12.44,12.72,21.14s-19.53,9-24.66.46,2-21.4,11.92-21.59" transform="translate(134.35 154.96)" fill="#9519e8"/>
        <path id="Path_1288" data-name="Path 1288" d="M1636,311.47c9.94-.18,17.53,12.44,12.72,21.14s-19.53,9-24.66.46,2-21.4,11.92-21.59" transform="translate(134.35 154.96)" fill="#9519e8"/>
        <path id="Path_1289" data-name="Path 1289" d="M394,638.47c9.94-.18,17.53,12.44,12.72,21.14s-19.53,9-24.66.46,2-21.4,11.92-21.59" transform="translate(134.35 154.96)" fill="#9519e8"/>
        <path id="Path_1290" data-name="Path 1290" d="M118,724.47c9.94-.18,17.53,12.44,12.72,21.14s-19.53,9-24.66.46,2-21.4,11.92-21.59" transform="translate(134.35 154.96)" fill="#63c1ff" opacity="0.05"/>
      </g>
    </g>
  </g>
</svg>
